<svg width="262" height="47" viewBox="0 0 262 47" fill="none" xmlns="http://www.w3.org/2000/svg">
<path fill-rule="evenodd" clip-rule="evenodd" d="M170.192 27.783L178.21 0.0703125H262L253.963 27.783H170.192ZM185.265 22.7814H192.094C197.517 22.7814 201.278 19.363 201.278 14.1646C201.278 8.9662 197.517 5.52499 192.094 5.52499H185.265V22.7814ZM214.133 19.8069L215.221 22.7814H219.244L212.571 5.52499H207.951L201.255 22.7814H205.306L206.394 19.8069H214.133ZM223.621 22.7814H227.295V15.7159L233.912 5.52499H229.706L225.449 12.4577L221.141 5.52499H216.934L223.621 15.7159V22.7814ZM233.582 20.3423C235.221 21.976 237.609 23.088 240.93 23.088C245.605 23.088 247.864 20.7084 247.874 17.5509C247.874 13.7207 244.236 12.8696 241.38 12.2198C239.382 11.7576 237.931 11.3961 237.931 10.2292C237.931 9.19501 238.813 8.47199 240.471 8.47199C242.301 8.467 244.068 9.13878 245.43 10.3573L247.483 7.6666C245.784 6.09243 243.488 5.26416 240.732 5.26416C236.659 5.26416 234.165 7.59338 234.165 10.4626C234.165 14.2678 237.708 15.0738 240.525 15.7147L240.631 15.7388C242.629 16.2056 244.131 16.6449 244.131 17.9399C244.131 18.9192 243.148 19.8801 241.123 19.8801C240.094 19.8849 239.074 19.6808 238.127 19.2804C237.179 18.88 236.324 18.2915 235.612 17.5509L233.582 20.3423ZM0 27.5679H4.03677L12.7992 0.431811H8.82671L0 27.5679ZM236.999 33.6541C239.818 33.6541 241.095 36.1938 241.095 38.7381C241.095 41.2824 239.818 43.8359 236.999 43.8359C234.179 43.8359 232.907 41.2824 232.907 38.7381C232.907 36.1938 234.165 33.6541 236.999 33.6541ZM236.999 35.5166C235.575 35.5166 235.042 36.9214 235.042 38.7198C235.042 40.5182 235.575 41.9551 236.999 41.9551C238.422 41.9551 238.941 40.5365 238.941 38.7198C238.941 36.9031 238.409 35.5166 236.999 35.5166ZM224.342 42.0055C228.392 39.0356 229.582 38.0151 229.582 36.8025C229.582 35.9422 228.792 35.5166 227.965 35.5166C227.468 35.5132 226.975 35.615 226.52 35.8154C226.065 36.0158 225.657 36.3101 225.325 36.6789L224.121 35.3061C224.606 34.7845 225.197 34.3713 225.854 34.0937C226.511 33.8161 227.22 33.6803 227.933 33.6953C230.041 33.6953 231.717 34.8759 231.717 36.8436C231.717 38.5276 230.34 39.992 227.667 41.8773H231.8V43.7078H224.342V42.0055ZM242.941 38.1753L244.608 36.505L244.585 43.662H246.693V33.8006H244.856L241.743 36.9214L242.941 38.1753ZM249.596 41.255C249.855 41.5082 250.164 41.7058 250.502 41.8357C250.841 41.9655 251.203 42.0249 251.566 42.01C253.155 42.01 254.046 40.6647 254.046 39.1683V38.9669C253.745 39.3576 253.358 39.675 252.916 39.8953C252.474 40.1157 251.987 40.2332 251.492 40.2391C249.711 40.2391 248.112 39.1454 248.112 37.0358C248.112 35.1139 249.651 33.6541 251.91 33.6541C254.905 33.6541 256.168 35.9422 256.168 38.7519C256.168 41.7217 254.491 43.8359 251.575 43.8359C250.513 43.8638 249.478 43.5004 248.668 42.8154L249.596 41.255ZM251.998 35.4754C251.786 35.456 251.572 35.4791 251.369 35.5434C251.166 35.6076 250.978 35.7117 250.817 35.8494C250.655 35.9872 250.522 36.1559 250.427 36.3455C250.332 36.5351 250.276 36.7418 250.262 36.9535C250.262 38.0014 251.139 38.459 252.099 38.459C252.471 38.4576 252.838 38.3749 253.174 38.2167C253.511 38.0586 253.808 37.8289 254.046 37.5438C253.963 36.5782 253.408 35.4571 251.998 35.4571V35.4754ZM18.448 20.7816C19.1776 20.8053 19.9074 20.7377 20.6202 20.5803C21.1254 20.443 21.3779 20.1684 21.3779 19.7474C21.3807 19.4942 21.2909 19.2486 21.1254 19.0564C20.9398 18.849 20.7131 18.6823 20.4595 18.5668C20.1428 18.4182 19.8178 18.2884 19.4859 18.1778C19.124 18.0516 18.7443 17.9299 18.3512 17.8038L18.3331 17.798C17.7683 17.6333 17.1896 17.4365 16.6018 17.2169C16.0321 17.0098 15.4918 16.7298 14.9944 16.384C14.5073 16.0512 14.0984 15.6172 13.7958 15.1119C13.4649 14.5235 13.3058 13.8546 13.3365 13.1808C13.3326 12.5703 13.4562 11.9656 13.6993 11.4053C13.9554 10.8318 14.3442 10.3268 14.8337 9.93176C15.4153 9.46682 16.0855 9.12434 16.8039 8.92502C17.7367 8.66794 18.7018 8.54618 19.6695 8.56351C20.5729 8.5582 21.4749 8.63169 22.3653 8.78316C23.1084 8.90322 23.8335 9.11537 24.5238 9.41466L23.9268 12.6774C23.5686 12.5767 23.0083 12.4028 22.2551 12.1603C21.4275 11.9105 20.5664 11.7886 19.7017 11.7988C18.7143 11.7988 18.0484 11.9223 17.6994 12.1603C17.5567 12.2368 17.4348 12.3467 17.3444 12.4807C17.254 12.6146 17.1977 12.7686 17.1804 12.9291C17.1778 13.1565 17.2634 13.3761 17.4192 13.5423C17.5995 13.7399 17.8123 13.9055 18.0484 14.0319C18.3438 14.1945 18.6508 14.3352 18.9669 14.4529C19.3113 14.5902 19.6879 14.7229 20.0875 14.8465C20.6523 15.0341 21.2402 15.2446 21.851 15.4734C22.4356 15.693 22.9908 15.9835 23.5043 16.3383C23.9995 16.6861 24.4145 17.1355 24.7213 17.6562C25.0467 18.2583 25.2052 18.9359 25.1805 19.6193C25.1819 20.2134 25.0632 20.8017 24.8315 21.3491C24.5834 21.9147 24.1867 22.4032 23.6834 22.7631C23.0487 23.2046 22.3369 23.5243 21.5846 23.7057C20.5428 23.9548 19.4732 24.0701 18.402 24.0489C17.2918 24.0671 16.1855 23.9127 15.123 23.5913C14.2045 23.2863 13.4789 23.0254 12.9462 22.8088L13.5478 19.5735C14.2826 19.8786 15.0648 20.1501 15.8945 20.3881C16.7212 20.6455 17.5819 20.7781 18.448 20.7816ZM27.8028 13.0252C27.3844 14.1172 27.1816 15.2795 27.2057 16.4481C27.1825 17.5736 27.3742 18.6933 27.7706 19.7474C28.1211 20.6512 28.6758 21.4623 29.3917 22.1178C30.1367 22.7806 31.0174 23.274 31.9727 23.5639C33.0697 23.9028 34.2136 24.0665 35.3619 24.049C36.217 24.0603 37.071 23.9852 37.9108 23.8247C38.6367 23.6742 39.3529 23.4801 40.0554 23.2436L39.5181 19.9442C39.0359 20.1135 38.4435 20.2783 37.7408 20.4476C37.0125 20.6186 36.2664 20.7031 35.5181 20.6993C34.4263 20.7461 33.3467 20.4552 32.4274 19.8664C32.0471 19.6198 31.7371 19.2797 31.5272 18.8789C31.3172 18.4781 31.2144 18.0302 31.2287 17.5784H40.827L40.831 17.5426C40.8491 17.3817 40.8729 17.1704 40.8729 16.9194V16.1369C40.8913 13.6628 40.3325 11.782 39.1967 10.4946C38.0608 9.20721 36.3998 8.56351 34.2138 8.56351C33.329 8.56459 32.4528 8.73549 31.6329 9.06688C30.789 9.4019 30.0254 9.91019 29.3917 10.5587C28.703 11.2676 28.1628 12.1061 27.8028 13.0252ZM36.9739 13.7619C37.0812 14.1354 37.1353 14.5221 37.1346 14.9105H31.2287C31.2615 14.5146 31.3433 14.1242 31.4721 13.7482C31.6002 13.3824 31.7913 13.0417 32.037 12.7415C32.2865 12.4446 32.6006 12.2083 32.9555 12.0505C33.3689 11.8751 33.8151 11.7893 34.2643 11.7988C34.7203 11.7848 35.1733 11.8773 35.587 12.0688C35.931 12.2357 36.2336 12.4764 36.4733 12.7735C36.7028 13.0676 36.8728 13.4033 36.9739 13.7619ZM54.8937 12.8833C54.6457 12.8193 54.3426 12.7552 53.9752 12.6911C53.6078 12.6271 53.2771 12.5722 52.9189 12.5218C52.5607 12.4715 52.2163 12.4303 51.8764 12.412C51.5366 12.3937 51.2564 12.38 51.0268 12.38C50.4803 12.38 49.943 12.4074 49.4194 12.4577C48.8763 12.5123 48.3387 12.6118 47.8121 12.7552V23.7378H43.9268V9.91803C44.96 9.53846 46.0189 9.23262 47.0957 9.00281C48.3463 8.75795 49.6191 8.64293 50.8936 8.65961C51.1003 8.65961 51.4034 8.65961 51.8121 8.69164C51.9034 8.69879 51.9939 8.70549 52.0845 8.71219C52.3997 8.73549 52.7153 8.75881 53.0613 8.80147C53.5067 8.85638 53.9476 8.91587 54.3977 8.98909C54.8112 9.0531 55.2184 9.15262 55.6147 9.28653L54.8937 12.8833ZM59.973 17.1574C60.9497 19.662 61.911 21.8448 62.8571 23.7057L66.1269 23.7515C67.0699 21.8845 68.0772 19.7017 69.1488 17.2031C70.2867 14.5166 71.2666 11.7663 72.0833 8.96619H68.143C67.9547 9.76243 67.7113 10.6273 67.4036 11.5105C67.3048 11.7941 67.2055 12.0815 67.1054 12.3712L67.1046 12.3736L67.1042 12.3747L67.1041 12.3752L67.1023 12.3803C66.8918 12.9897 66.6778 13.609 66.4576 14.2241C66.1315 15.1347 65.8008 16.0225 65.461 16.8782L64.5425 19.2349C64.4119 18.8931 64.2824 18.5322 64.1468 18.1542C64.001 17.7478 63.8481 17.3216 63.6791 16.8782C63.3531 16.0225 63.0546 15.1347 62.7606 14.2241C62.4667 13.3135 62.1866 12.4257 61.9248 11.5105C61.6676 10.5953 61.4411 9.73192 61.2451 8.92043H57.1808C58.0656 11.9071 58.9963 14.6527 59.973 17.1574ZM72.6344 16.4481C72.6103 15.2795 72.813 14.1172 73.2314 13.0252C73.5891 12.1081 74.1243 11.27 74.8066 10.5587C75.4411 9.91124 76.2045 9.4031 77.0477 9.06688C77.869 8.73491 78.7469 8.564 79.6332 8.56351C81.8162 8.56351 83.4756 9.20722 84.6115 10.4946C85.7473 11.782 86.3229 13.6628 86.3382 16.1369V16.9194C86.3382 17.17 86.3145 17.3812 86.2964 17.542V17.5421L86.2964 17.5422L86.2963 17.5424L86.2963 17.5426L86.2923 17.5784H76.639C76.6237 18.0299 76.7256 18.4777 76.9348 18.8785C77.144 19.2793 77.4533 19.6196 77.833 19.8664C78.7523 20.4552 79.8319 20.7461 80.9237 20.6993C81.672 20.7034 82.4182 20.6189 83.1465 20.4476C83.8491 20.2783 84.4415 20.1135 84.9283 19.9442L85.4611 23.2436C84.7599 23.4795 84.0453 23.6736 83.321 23.8247C82.4799 23.9882 81.6244 24.0664 80.7676 24.0581C79.6192 24.0757 78.4753 23.912 77.3784 23.573C76.4328 23.2795 75.5619 22.7863 74.8249 22.127C74.1062 21.4693 73.5498 20.6549 73.1992 19.7474C72.8028 18.6933 72.6111 17.5736 72.6344 16.4481ZM82.5632 14.9105C82.5631 14.5224 82.5106 14.1361 82.4071 13.7619C82.3044 13.403 82.1328 13.0674 81.9019 12.7735C81.6629 12.4775 81.362 12.237 81.0202 12.0688C80.6048 11.8772 80.1504 11.7848 79.6929 11.7988C79.2437 11.7893 78.7975 11.8751 78.3841 12.0505C78.0292 12.2083 77.7151 12.4446 77.4656 12.7415C77.2216 13.0428 77.0306 13.3832 76.9007 13.7482C76.764 14.1232 76.6745 14.5136 76.6344 14.9105H82.5632ZM99.4085 12.6911C99.7759 12.7552 100.074 12.8193 100.327 12.8833L101.02 9.28653C100.624 9.15262 100.217 9.0531 99.8035 8.98908C99.3534 8.91587 98.9079 8.85638 98.467 8.80147C98.1237 8.7587 97.8082 8.73536 97.4923 8.712L97.4921 8.71198C97.4025 8.70535 97.3128 8.69872 97.2225 8.69164C96.8138 8.65961 96.5152 8.65961 96.304 8.65961C95.0295 8.64316 93.7567 8.75818 92.506 9.00281C91.4293 9.23261 90.3704 9.53846 89.3372 9.91803V23.7378H93.2454V12.7552C93.772 12.6118 94.3096 12.5123 94.8528 12.4577C95.3809 12.4074 95.9136 12.38 96.4601 12.38C96.6944 12.38 96.9791 12.3937 97.3143 12.412C97.6496 12.4303 97.994 12.4715 98.3522 12.5218C98.7104 12.5722 99.0411 12.6271 99.4085 12.6911ZM114.407 23.0742C114.27 23.1583 114.127 23.2332 113.98 23.2985C113.697 23.4232 113.407 23.5332 113.112 23.6279C112.685 23.7576 112.249 23.857 111.808 23.9254C111.229 24.0121 110.644 24.0534 110.058 24.0489C108.27 24.0489 106.968 23.5212 106.15 22.4656C105.333 21.4101 104.922 19.8649 104.919 17.8301V5.30077H100.823V2.09751H108.795V18.1138C108.795 19.1205 108.997 19.7978 109.397 20.1547C109.813 20.5191 110.354 20.7107 110.908 20.6901C111.574 20.7086 112.238 20.6015 112.864 20.3744L113.902 19.9671L114.407 23.0742ZM116.231 13.0252C115.811 14.1169 115.606 15.2792 115.629 16.4481C115.602 17.5735 115.792 18.6936 116.189 19.7474C116.541 20.6555 117.099 21.47 117.82 22.127C118.557 22.7863 119.427 23.2795 120.373 23.573C121.47 23.912 122.614 24.0757 123.762 24.0581C124.619 24.0664 125.475 23.9882 126.316 23.8247C127.042 23.6736 127.758 23.4795 128.46 23.2436L127.923 19.9442C127.338 20.1415 126.743 20.3095 126.141 20.4476C125.413 20.6192 124.667 20.7037 123.918 20.6993C122.828 20.7455 121.75 20.4545 120.832 19.8664C120.452 19.6198 120.142 19.2797 119.932 18.8789C119.722 18.4781 119.619 18.0302 119.634 17.5784H129.259C129.282 17.4136 129.31 17.1894 129.31 16.9194V16.1369C129.307 13.6628 128.739 11.782 127.606 10.4946C126.473 9.20722 124.814 8.56351 122.628 8.56351C121.742 8.56503 120.864 8.7359 120.042 9.06688C119.201 9.40318 118.439 9.91135 117.806 10.5587C117.121 11.2676 116.585 12.1063 116.231 13.0252ZM125.402 13.7619C125.508 14.1356 125.56 14.5223 125.558 14.9105H119.611C119.651 14.5136 119.74 14.1232 119.877 13.7482C120.007 13.3822 120.199 13.0415 120.447 12.7415C120.695 12.4435 121.009 12.207 121.365 12.0505C121.778 11.8751 122.225 11.7893 122.674 11.7988C123.13 11.7853 123.583 11.8777 123.996 12.0688C124.347 12.2322 124.654 12.4733 124.897 12.7735C125.128 13.0674 125.299 13.403 125.402 13.7619ZM136.855 20.7816C137.587 20.8049 138.318 20.7373 139.032 20.5803C139.533 20.443 139.785 20.1684 139.785 19.7474C139.793 19.4965 139.71 19.2512 139.551 19.0564C139.366 18.8501 139.141 18.6835 138.89 18.5668C138.571 18.4191 138.245 18.2892 137.912 18.1778C137.55 18.0517 137.171 17.93 136.778 17.8041L136.777 17.804L136.777 17.8039L136.777 17.8038L136.759 17.798C136.194 17.6333 135.615 17.4365 135.028 17.2169C134.458 17.0088 133.918 16.7289 133.42 16.384C132.934 16.0501 132.525 15.6164 132.222 15.1119C131.891 14.5235 131.732 13.8546 131.762 13.1808C131.758 12.5703 131.882 11.9656 132.125 11.4053C132.381 10.8318 132.77 10.3268 133.26 9.93176C133.841 9.46683 134.511 9.12434 135.23 8.92502C136.164 8.66794 137.131 8.54619 138.1 8.56351C139.002 8.55818 139.902 8.63168 140.791 8.78316C141.536 8.90392 142.262 9.11603 142.954 9.41466L142.353 12.6774C141.994 12.5767 141.434 12.4028 140.681 12.1603C139.853 11.9103 138.992 11.7883 138.128 11.7988C137.14 11.7988 136.474 11.9223 136.13 12.1603C135.986 12.2359 135.863 12.3455 135.772 12.4796C135.68 12.6136 135.624 12.768 135.606 12.9291C135.607 13.1559 135.692 13.3744 135.845 13.5423C136.025 13.7399 136.238 13.9055 136.474 14.0319C136.77 14.1937 137.077 14.3344 137.393 14.4529C137.742 14.5902 138.114 14.7229 138.513 14.8465C139.078 15.0341 139.666 15.2446 140.277 15.4734C140.861 15.693 141.417 15.9835 141.93 16.3383C142.425 16.6862 142.84 17.1355 143.147 17.6562C143.472 18.2583 143.631 18.9359 143.606 19.6193C143.61 20.2136 143.491 20.8023 143.257 21.3491C143.009 21.9147 142.613 22.4032 142.109 22.7631C141.475 23.2046 140.763 23.5243 140.01 23.7057C138.969 23.9553 137.899 24.0707 136.828 24.0489C135.718 24.0671 134.611 23.9127 133.549 23.5913C132.63 23.2863 131.906 23.0254 131.377 22.8088L131.974 19.5735C132.708 19.8786 133.491 20.1501 134.32 20.3881C135.141 20.6437 135.995 20.7763 136.855 20.7816ZM153.485 20.5803C152.77 20.7373 152.039 20.8049 151.308 20.7816C150.441 20.7723 149.58 20.6335 148.754 20.3698C147.925 20.1318 147.142 19.8603 146.408 19.5552L145.806 22.7905C146.339 23.0071 147.064 23.268 147.983 23.573C149.045 23.895 150.152 24.0494 151.262 24.0306C152.333 24.0518 153.403 23.9365 154.444 23.6874C155.195 23.506 155.906 23.1863 156.539 22.7448C157.043 22.385 157.441 21.8966 157.691 21.3307C157.922 20.7831 158.039 20.1948 158.036 19.601C158.063 18.9174 157.904 18.2392 157.577 17.6379C157.273 17.1164 156.859 16.6667 156.364 16.3199C155.85 15.9661 155.295 15.6757 154.711 15.4551C154.1 15.2263 153.512 15.0158 152.943 14.8281C152.548 14.7046 152.171 14.5719 151.827 14.4346C151.511 14.3169 151.204 14.1762 150.908 14.0136C150.671 13.8872 150.457 13.7216 150.275 13.524C150.123 13.3554 150.04 13.137 150.04 12.9108C150.058 12.7502 150.114 12.5963 150.204 12.4624C150.295 12.3284 150.417 12.2184 150.559 12.142C150.908 11.904 151.574 11.7805 152.562 11.7805C153.426 11.7703 154.287 11.8922 155.115 12.142C155.868 12.3845 156.428 12.5584 156.787 12.6591L157.384 9.39635C156.693 9.09768 155.968 8.88556 155.225 8.76485C154.34 8.62057 153.444 8.55321 152.548 8.5635C151.58 8.54585 150.615 8.66761 149.682 8.92501C148.964 9.12433 148.294 9.46682 147.712 9.93175C147.221 10.3267 146.831 10.8315 146.573 11.4052C146.333 11.9666 146.212 12.5708 146.215 13.1808C146.187 13.8543 146.345 14.5226 146.674 15.1119C146.979 15.6152 147.388 16.0487 147.873 16.384C148.371 16.7279 148.911 17.0078 149.48 17.2169C150.072 17.4365 150.646 17.6333 151.216 17.798C151.616 17.9262 151.997 18.0497 152.364 18.1778C152.697 18.2884 153.024 18.4183 153.342 18.5668C153.595 18.681 153.821 18.848 154.004 19.0564C154.166 19.2497 154.251 19.4957 154.242 19.7474C154.242 20.1684 153.99 20.443 153.485 20.5803ZM163.313 27.5679H159.276L168.107 0.431811H172.075L163.313 27.5679ZM188.952 8.76485H192.093C195.639 8.76485 197.517 11.1124 197.517 14.1646C197.517 17.0887 195.519 19.5461 192.093 19.5461H188.952V8.76485ZM207.382 16.622H213.118L210.261 8.70995L207.382 16.622ZM153.889 28.7074H147.418C147.174 28.7074 146.941 28.611 146.769 28.4393C146.596 28.2677 146.5 28.0349 146.5 27.7922C146.5 27.5494 146.596 27.3167 146.769 27.145C146.941 26.9734 147.174 26.877 147.418 26.877H153.907C154.151 26.877 154.384 26.9734 154.557 27.145C154.729 27.3167 154.826 27.5494 154.826 27.7922C154.826 28.0349 154.729 28.2677 154.557 28.4393C154.384 28.611 154.151 28.7074 153.907 28.7074H153.889ZM141.838 28.7074H135.344C135.101 28.7074 134.867 28.611 134.695 28.4393C134.523 28.2677 134.426 28.0349 134.426 27.7922C134.426 27.5494 134.523 27.3167 134.695 27.145C134.867 26.9734 135.101 26.877 135.344 26.877H141.838C142.082 26.877 142.315 26.9734 142.488 27.145C142.66 27.3167 142.757 27.5494 142.757 27.7922C142.757 28.0349 142.66 28.2677 142.488 28.4393C142.315 28.611 142.082 28.7074 141.838 28.7074ZM129.783 28.7074H123.294C123.05 28.7074 122.817 28.611 122.644 28.4393C122.472 28.2677 122.375 28.0349 122.375 27.7922C122.375 27.5494 122.472 27.3167 122.644 27.145C122.817 26.9734 123.05 26.877 123.294 26.877H129.783C130.027 26.877 130.26 26.9734 130.432 27.145C130.605 27.3167 130.701 27.5494 130.701 27.7922C130.701 28.0349 130.605 28.2677 130.432 28.4393C130.26 28.611 130.027 28.7074 129.783 28.7074ZM117.732 28.7074H111.243C111 28.7074 110.766 28.611 110.594 28.4393C110.421 28.2677 110.325 28.0349 110.325 27.7922C110.325 27.5494 110.421 27.3167 110.594 27.145C110.766 26.9734 111 26.877 111.243 26.877H117.732C117.976 26.877 118.21 26.9734 118.382 27.145C118.554 27.3167 118.651 27.5494 118.651 27.7922C118.651 28.0349 118.554 28.2677 118.382 28.4393C118.21 28.611 117.976 28.7074 117.732 28.7074ZM105.677 28.7074H99.1972C98.9536 28.7074 98.72 28.611 98.5477 28.4393C98.3755 28.2677 98.2787 28.0349 98.2787 27.7922C98.2787 27.5494 98.3755 27.3167 98.5477 27.145C98.72 26.9734 98.9536 26.877 99.1972 26.877H105.686C105.93 26.877 106.164 26.9734 106.336 27.145C106.508 27.3167 106.605 27.5494 106.605 27.7922C106.605 28.0349 106.508 28.2677 106.336 28.4393C106.164 28.611 105.93 28.7074 105.686 28.7074H105.677ZM93.6265 28.7074H87.1374C86.8938 28.7074 86.6602 28.611 86.4879 28.4393C86.3157 28.2677 86.2189 28.0349 86.2189 27.7922C86.2189 27.5494 86.3157 27.3167 86.4879 27.145C86.6602 26.9734 86.8938 26.877 87.1374 26.877H93.6265C93.8701 26.877 94.1037 26.9734 94.276 27.145C94.4482 27.3167 94.545 27.5494 94.545 27.7922C94.545 28.0349 94.4482 28.2677 94.276 28.4393C94.1037 28.611 93.8701 28.7074 93.6265 28.7074ZM81.5713 28.7074H75.0822C74.8386 28.7074 74.6049 28.611 74.4327 28.4393C74.2604 28.2677 74.1637 28.0349 74.1637 27.7922C74.1637 27.5494 74.2604 27.3167 74.4327 27.145C74.6049 26.9734 74.8386 26.877 75.0822 26.877H81.5713C81.8149 26.877 82.0485 26.9734 82.2208 27.145C82.393 27.3167 82.4898 27.5494 82.4898 27.7922C82.4898 28.0349 82.393 28.2677 82.2208 28.4393C82.0485 28.611 81.8149 28.7074 81.5713 28.7074ZM69.5207 28.7074H63.0315C62.7879 28.7074 62.5543 28.611 62.3821 28.4393C62.2098 28.2677 62.113 28.0349 62.113 27.7922C62.113 27.5494 62.2098 27.3167 62.3821 27.145C62.5543 26.9734 62.7879 26.877 63.0315 26.877H69.5207C69.7643 26.877 69.9979 26.9734 70.1702 27.145C70.3424 27.3167 70.4392 27.5494 70.4392 27.7922C70.4392 28.0349 70.3424 28.2677 70.1702 28.4393C69.9979 28.611 69.7643 28.7074 69.5207 28.7074ZM57.4655 28.7074H50.9763C50.7327 28.7074 50.4991 28.611 50.3268 28.4393C50.1546 28.2677 50.0578 28.0349 50.0578 27.7922C50.0578 27.5494 50.1546 27.3167 50.3268 27.145C50.4991 26.9734 50.7327 26.877 50.9763 26.877H57.4655C57.7091 26.877 57.9427 26.9734 58.1149 27.145C58.2872 27.3167 58.384 27.5494 58.384 27.7922C58.384 28.0349 58.2872 28.2677 58.1149 28.4393C57.9427 28.611 57.7091 28.7074 57.4655 28.7074ZM45.4148 28.7074H38.9257C38.6821 28.7074 38.4485 28.611 38.2762 28.4393C38.104 28.2677 38.0072 28.0349 38.0072 27.7922C38.0072 27.5494 38.104 27.3167 38.2762 27.145C38.4485 26.9734 38.6821 26.877 38.9257 26.877H45.4148C45.6584 26.877 45.8921 26.9734 46.0643 27.145C46.2366 27.3167 46.3333 27.5494 46.3333 27.7922C46.3333 28.0349 46.2366 28.2677 46.0643 28.4393C45.8921 28.611 45.6584 28.7074 45.4148 28.7074ZM33.3642 28.7074H26.8705C26.6269 28.7074 26.3932 28.611 26.221 28.4393C26.0487 28.2677 25.952 28.0349 25.952 27.7922C25.952 27.5494 26.0487 27.3167 26.221 27.145C26.3932 26.9734 26.6269 26.877 26.8705 26.877H33.3642C33.6078 26.877 33.8414 26.9734 34.0137 27.145C34.1859 27.3167 34.2827 27.5494 34.2827 27.7922C34.2827 28.0349 34.1859 28.2677 34.0137 28.4393C33.8414 28.611 33.6078 28.7074 33.3642 28.7074ZM21.309 28.7074H14.8198C14.5762 28.7074 14.3426 28.611 14.1704 28.4393C13.9981 28.2677 13.9013 28.0349 13.9013 27.7922C13.9013 27.5494 13.9981 27.3167 14.1704 27.145C14.3426 26.9734 14.5762 26.877 14.8198 26.877H21.309C21.5526 26.877 21.7862 26.9734 21.9585 27.145C22.1307 27.3167 22.2275 27.5494 22.2275 27.7922C22.2275 28.0349 22.1307 28.2677 21.9585 28.4393C21.7862 28.611 21.5526 28.7074 21.309 28.7074ZM176.139 34.789H179.18V43.662H180.484V34.789H183.538V33.6953H176.139V34.789ZM189.907 40.024C189.907 42.669 188.07 43.8222 186.33 43.8222C184.387 43.8222 182.89 42.4036 182.89 40.1613C182.89 37.768 184.461 36.3632 186.449 36.3632C188.511 36.3449 189.907 37.8367 189.907 40.024ZM184.208 40.0972C184.208 41.6668 185.127 42.8429 186.39 42.8429C187.653 42.8429 188.571 41.676 188.571 40.0652C188.571 38.8526 187.96 37.3196 186.417 37.3196C184.874 37.3196 184.208 38.7381 184.208 40.0972ZM192.718 39.7861H192.686L192.691 33.1645H191.4V43.662H192.691V40.9713L193.357 40.2299L195.836 43.662H197.421L194.261 39.4474L197.017 36.505H195.46L193.352 38.9761L193.337 38.9948C193.133 39.2428 192.888 39.5406 192.718 39.7861ZM199.134 36.505L200.691 40.7333C200.856 41.1909 201.035 41.7675 201.15 42.1977H201.182C201.226 42.0559 201.271 41.9017 201.319 41.7402L201.319 41.7383L201.32 41.7377C201.416 41.4098 201.522 41.0517 201.641 40.7059L203.065 36.505H204.443L202.486 41.6073C201.568 44.0601 200.916 45.314 200.025 46.0827C199.573 46.4983 199.021 46.79 198.422 46.9293L198.096 45.8311C198.515 45.6963 198.903 45.4818 199.239 45.1996C199.711 44.8053 200.086 44.3092 200.337 43.7489C200.389 43.6521 200.423 43.5467 200.438 43.4378C200.428 43.3209 200.398 43.2066 200.351 43.0991L197.696 36.505H199.134ZM208.227 43.8222C209.967 43.8222 211.804 42.669 211.804 40.024C211.804 37.8367 210.408 36.3449 208.346 36.3632C206.358 36.3632 204.787 37.768 204.787 40.1613C204.787 42.4036 206.284 43.8222 208.227 43.8222ZM208.287 42.8429C207.024 42.8429 206.105 41.6668 206.105 40.0972C206.105 38.7381 206.776 37.3196 208.319 37.3196C209.862 37.3196 210.468 38.8526 210.468 40.0652C210.468 41.676 209.55 42.8429 208.287 42.8429Z" fill="white"/>
</svg>
