<?xml version="1.0" encoding="utf-8"?>
<!-- Generator: Adobe Illustrator 27.5.0, SVG Export Plug-In . SVG Version: 6.00 Build 0)  -->
<svg version="1.1" id="Layer_1" xmlns="http://www.w3.org/2000/svg" xmlns:xlink="http://www.w3.org/1999/xlink" x="0px" y="0px"
	 viewBox="0 0 262 47" style="enable-background:new 0 0 262 47;" xml:space="preserve">
<style type="text/css">
	.st0{fill-rule:evenodd;clip-rule:evenodd;fill:#FFFFFF;}
</style>
<path class="st0" d="M170.2,27.8l8-27.7H262l-8,27.7H170.2z M185.3,22.8h6.8c5.4,0,9.2-3.4,9.2-8.6s-3.8-8.6-9.2-8.6h-6.8V22.8z
	 M214.1,19.8l1.1,3h4l-6.7-17.3H208l-6.7,17.3h4.1l1.1-3H214.1z M223.6,22.8h3.7v-7.1l6.6-10.2h-4.2l-4.3,6.9l-4.3-6.9h-4.2
	l6.7,10.2V22.8z M233.6,20.3c1.6,1.6,4,2.7,7.3,2.7c4.7,0,6.9-2.4,6.9-5.5c0-3.8-3.6-4.7-6.5-5.3c-2-0.5-3.4-0.8-3.4-2
	c0-1,0.9-1.8,2.5-1.8c1.8,0,3.6,0.7,5,1.9l2.1-2.7c-1.7-1.6-4-2.4-6.8-2.4c-4.1,0-6.6,2.3-6.6,5.2c0,3.8,3.5,4.6,6.4,5.3l0.1,0
	c2,0.5,3.5,0.9,3.5,2.2c0,1-1,1.9-3,1.9c-1,0-2-0.2-3-0.6c-0.9-0.4-1.8-1-2.5-1.7L233.6,20.3z M0,27.6h4l8.8-27.1h-4L0,27.6z
	 M18.4,20.8c0.7,0,1.5,0,2.2-0.2c0.5-0.1,0.8-0.4,0.8-0.8c0-0.3-0.1-0.5-0.3-0.7c-0.2-0.2-0.4-0.4-0.7-0.5c-0.3-0.1-0.6-0.3-1-0.4
	c-0.4-0.1-0.7-0.2-1.1-0.4l0,0c-0.6-0.2-1.1-0.4-1.7-0.6C16,17,15.5,16.7,15,16.4c-0.5-0.3-0.9-0.8-1.2-1.3
	c-0.3-0.6-0.5-1.3-0.5-1.9c0-0.6,0.1-1.2,0.4-1.8c0.3-0.6,0.6-1.1,1.1-1.5c0.6-0.5,1.3-0.8,2-1c0.9-0.3,1.9-0.4,2.9-0.4
	c0.9,0,1.8,0.1,2.7,0.2c0.7,0.1,1.5,0.3,2.2,0.6l-0.6,3.3c-0.4-0.1-0.9-0.3-1.7-0.5c-0.8-0.2-1.7-0.4-2.6-0.4c-1,0-1.7,0.1-2,0.4
	c-0.1,0.1-0.3,0.2-0.4,0.3c-0.1,0.1-0.1,0.3-0.2,0.4c0,0.2,0.1,0.4,0.2,0.6c0.2,0.2,0.4,0.4,0.6,0.5c0.3,0.2,0.6,0.3,0.9,0.4
	c0.3,0.1,0.7,0.3,1.1,0.4c0.6,0.2,1.2,0.4,1.8,0.6c0.6,0.2,1.1,0.5,1.7,0.9c0.5,0.3,0.9,0.8,1.2,1.3c0.3,0.6,0.5,1.3,0.5,2
	c0,0.6-0.1,1.2-0.3,1.7c-0.2,0.6-0.6,1.1-1.1,1.4c-0.6,0.4-1.3,0.8-2.1,0.9c-1,0.2-2.1,0.4-3.2,0.3c-1.1,0-2.2-0.1-3.3-0.5
	c-0.9-0.3-1.6-0.6-2.2-0.8l0.6-3.2c0.7,0.3,1.5,0.6,2.3,0.8C16.7,20.6,17.6,20.8,18.4,20.8z M27.8,13c-0.4,1.1-0.6,2.3-0.6,3.4
	c0,1.1,0.2,2.2,0.6,3.3c0.4,0.9,0.9,1.7,1.6,2.4c0.7,0.7,1.6,1.2,2.6,1.4c1.1,0.3,2.2,0.5,3.4,0.5c0.9,0,1.7-0.1,2.5-0.2
	c0.7-0.2,1.4-0.3,2.1-0.6l-0.5-3.3c-0.5,0.2-1.1,0.3-1.8,0.5c-0.7,0.2-1.5,0.3-2.2,0.3c-1.1,0-2.2-0.2-3.1-0.8
	c-0.4-0.2-0.7-0.6-0.9-1c-0.2-0.4-0.3-0.8-0.3-1.3h9.6l0,0c0-0.2,0-0.4,0-0.6v-0.8c0-2.5-0.5-4.4-1.7-5.6c-1.1-1.3-2.8-1.9-5-1.9
	c-0.9,0-1.8,0.2-2.6,0.5c-0.8,0.3-1.6,0.8-2.2,1.5C28.7,11.3,28.2,12.1,27.8,13z M37,13.8c0.1,0.4,0.2,0.8,0.2,1.1h-5.9
	c0-0.4,0.1-0.8,0.2-1.2c0.1-0.4,0.3-0.7,0.6-1c0.2-0.3,0.6-0.5,0.9-0.7c0.4-0.2,0.9-0.3,1.3-0.3c0.5,0,0.9,0.1,1.3,0.3
	c0.3,0.2,0.6,0.4,0.9,0.7C36.7,13.1,36.9,13.4,37,13.8z M54.9,12.9c-0.2-0.1-0.6-0.1-0.9-0.2c-0.4-0.1-0.7-0.1-1.1-0.2
	c-0.4-0.1-0.7-0.1-1-0.1c-0.3,0-0.6,0-0.8,0c-0.5,0-1.1,0-1.6,0.1c-0.5,0.1-1.1,0.2-1.6,0.3v11h-3.9V9.9C45,9.5,46,9.2,47.1,9
	c1.3-0.2,2.5-0.4,3.8-0.3c0.2,0,0.5,0,0.9,0c0.1,0,0.2,0,0.3,0c0.3,0,0.6,0,1,0.1c0.4,0.1,0.9,0.1,1.3,0.2c0.4,0.1,0.8,0.2,1.2,0.3
	L54.9,12.9z M60,17.2c1,2.5,1.9,4.7,2.9,6.5l3.3,0c0.9-1.9,2-4,3-6.5c1.1-2.7,2.1-5.4,2.9-8.2h-3.9c-0.2,0.8-0.4,1.7-0.7,2.5
	c-0.1,0.3-0.2,0.6-0.3,0.9l0,0l0,0l0,0l0,0c-0.2,0.6-0.4,1.2-0.6,1.8c-0.3,0.9-0.7,1.8-1,2.7l-0.9,2.4c-0.1-0.3-0.3-0.7-0.4-1.1
	c-0.1-0.4-0.3-0.8-0.5-1.3c-0.3-0.9-0.6-1.7-0.9-2.7c-0.3-0.9-0.6-1.8-0.8-2.7c-0.3-0.9-0.5-1.8-0.7-2.6h-4.1
	C58.1,11.9,59,14.7,60,17.2z M72.6,16.4c0-1.2,0.2-2.3,0.6-3.4c0.4-0.9,0.9-1.8,1.6-2.5c0.6-0.6,1.4-1.2,2.2-1.5
	c0.8-0.3,1.7-0.5,2.6-0.5c2.2,0,3.8,0.6,5,1.9c1.1,1.3,1.7,3.2,1.7,5.6v0.8c0,0.3,0,0.5,0,0.6v0v0l0,0v0l0,0h-9.7
	c0,0.5,0.1,0.9,0.3,1.3s0.5,0.7,0.9,1c0.9,0.6,2,0.9,3.1,0.8c0.7,0,1.5-0.1,2.2-0.3c0.7-0.2,1.3-0.3,1.8-0.5l0.5,3.3
	c-0.7,0.2-1.4,0.4-2.1,0.6c-0.8,0.2-1.7,0.2-2.6,0.2c-1.1,0-2.3-0.1-3.4-0.5c-0.9-0.3-1.8-0.8-2.6-1.4c-0.7-0.7-1.3-1.5-1.6-2.4
	C72.8,18.7,72.6,17.6,72.6,16.4z M82.6,14.9c0-0.4-0.1-0.8-0.2-1.1c-0.1-0.4-0.3-0.7-0.5-1c-0.2-0.3-0.5-0.5-0.9-0.7
	c-0.4-0.2-0.9-0.3-1.3-0.3c-0.4,0-0.9,0.1-1.3,0.3c-0.4,0.2-0.7,0.4-0.9,0.7c-0.2,0.3-0.4,0.6-0.6,1c-0.1,0.4-0.2,0.8-0.3,1.2H82.6z
	 M99.4,12.7c0.4,0.1,0.7,0.1,0.9,0.2l0.7-3.6c-0.4-0.1-0.8-0.2-1.2-0.3c-0.5-0.1-0.9-0.1-1.3-0.2c-0.3,0-0.7-0.1-1-0.1l0,0
	c-0.1,0-0.2,0-0.3,0c-0.4,0-0.7,0-0.9,0c-1.3,0-2.5,0.1-3.8,0.3c-1.1,0.2-2.1,0.5-3.2,0.9v13.8h3.9v-11c0.5-0.1,1.1-0.2,1.6-0.3
	c0.5-0.1,1.1-0.1,1.6-0.1c0.2,0,0.5,0,0.9,0c0.3,0,0.7,0.1,1,0.1C98.7,12.6,99,12.6,99.4,12.7z M114.4,23.1
	c-0.1,0.1-0.3,0.2-0.4,0.2c-0.3,0.1-0.6,0.2-0.9,0.3c-0.4,0.1-0.9,0.2-1.3,0.3c-0.6,0.1-1.2,0.1-1.8,0.1c-1.8,0-3.1-0.5-3.9-1.6
	c-0.8-1.1-1.2-2.6-1.2-4.6V5.3h-4.1V2.1h8v16c0,1,0.2,1.7,0.6,2c0.4,0.4,1,0.6,1.5,0.5c0.7,0,1.3-0.1,2-0.3l1-0.4L114.4,23.1z
	 M116.2,13c-0.4,1.1-0.6,2.3-0.6,3.4c0,1.1,0.2,2.2,0.6,3.3c0.4,0.9,0.9,1.7,1.6,2.4c0.7,0.7,1.6,1.2,2.6,1.4
	c1.1,0.3,2.2,0.5,3.4,0.5c0.9,0,1.7-0.1,2.6-0.2c0.7-0.2,1.4-0.3,2.1-0.6l-0.5-3.3c-0.6,0.2-1.2,0.4-1.8,0.5
	c-0.7,0.2-1.5,0.3-2.2,0.3c-1.1,0-2.2-0.2-3.1-0.8c-0.4-0.2-0.7-0.6-0.9-1c-0.2-0.4-0.3-0.8-0.3-1.3h9.6c0-0.2,0.1-0.4,0.1-0.7v-0.8
	c0-2.5-0.6-4.4-1.7-5.6c-1.1-1.3-2.8-1.9-5-1.9c-0.9,0-1.8,0.2-2.6,0.5c-0.8,0.3-1.6,0.8-2.2,1.5C117.1,11.3,116.6,12.1,116.2,13z
	 M125.4,13.8c0.1,0.4,0.2,0.8,0.2,1.1h-5.9c0-0.4,0.1-0.8,0.3-1.2c0.1-0.4,0.3-0.7,0.6-1c0.2-0.3,0.6-0.5,0.9-0.7
	c0.4-0.2,0.9-0.3,1.3-0.3c0.5,0,0.9,0.1,1.3,0.3c0.4,0.2,0.7,0.4,0.9,0.7C125.1,13.1,125.3,13.4,125.4,13.8z M136.9,20.8
	c0.7,0,1.5,0,2.2-0.2c0.5-0.1,0.8-0.4,0.8-0.8c0-0.3-0.1-0.5-0.2-0.7c-0.2-0.2-0.4-0.4-0.7-0.5c-0.3-0.1-0.6-0.3-1-0.4
	c-0.4-0.1-0.7-0.2-1.1-0.4l0,0v0v0l0,0c-0.6-0.2-1.1-0.4-1.7-0.6c-0.6-0.2-1.1-0.5-1.6-0.8c-0.5-0.3-0.9-0.8-1.2-1.3
	c-0.3-0.6-0.5-1.3-0.5-1.9c0-0.6,0.1-1.2,0.4-1.8c0.3-0.6,0.6-1.1,1.1-1.5c0.6-0.5,1.3-0.8,2-1c0.9-0.3,1.9-0.4,2.9-0.4
	c0.9,0,1.8,0.1,2.7,0.2c0.7,0.1,1.5,0.3,2.2,0.6l-0.6,3.3c-0.4-0.1-0.9-0.3-1.7-0.5c-0.8-0.2-1.7-0.4-2.6-0.4c-1,0-1.7,0.1-2,0.4
	c-0.1,0.1-0.3,0.2-0.4,0.3c-0.1,0.1-0.1,0.3-0.2,0.4c0,0.2,0.1,0.4,0.2,0.6c0.2,0.2,0.4,0.4,0.6,0.5c0.3,0.2,0.6,0.3,0.9,0.4
	c0.3,0.1,0.7,0.3,1.1,0.4c0.6,0.2,1.2,0.4,1.8,0.6c0.6,0.2,1.1,0.5,1.7,0.9c0.5,0.3,0.9,0.8,1.2,1.3c0.3,0.6,0.5,1.3,0.5,2
	c0,0.6-0.1,1.2-0.3,1.7c-0.2,0.6-0.6,1.1-1.1,1.4c-0.6,0.4-1.3,0.8-2.1,0.9c-1,0.2-2.1,0.4-3.2,0.3c-1.1,0-2.2-0.1-3.3-0.5
	c-0.9-0.3-1.6-0.6-2.2-0.8l0.6-3.2c0.7,0.3,1.5,0.6,2.3,0.8C135.1,20.6,136,20.8,136.9,20.8z M153.5,20.6c-0.7,0.2-1.4,0.2-2.2,0.2
	c-0.9,0-1.7-0.1-2.6-0.4c-0.8-0.2-1.6-0.5-2.3-0.8l-0.6,3.2c0.5,0.2,1.3,0.5,2.2,0.8c1.1,0.3,2.2,0.5,3.3,0.5c1.1,0,2.1-0.1,3.2-0.3
	c0.8-0.2,1.5-0.5,2.1-0.9c0.5-0.4,0.9-0.8,1.2-1.4c0.2-0.5,0.3-1.1,0.3-1.7c0-0.7-0.1-1.4-0.5-2c-0.3-0.5-0.7-1-1.2-1.3
	c-0.5-0.4-1.1-0.6-1.7-0.9c-0.6-0.2-1.2-0.4-1.8-0.6c-0.4-0.1-0.8-0.3-1.1-0.4c-0.3-0.1-0.6-0.3-0.9-0.4c-0.2-0.1-0.5-0.3-0.6-0.5
	c-0.2-0.2-0.2-0.4-0.2-0.6c0-0.2,0.1-0.3,0.2-0.4c0.1-0.1,0.2-0.2,0.4-0.3c0.3-0.2,1-0.4,2-0.4c0.9,0,1.7,0.1,2.6,0.4
	c0.8,0.2,1.3,0.4,1.7,0.5l0.6-3.3c-0.7-0.3-1.4-0.5-2.2-0.6c-0.9-0.1-1.8-0.2-2.7-0.2c-1,0-1.9,0.1-2.9,0.4c-0.7,0.2-1.4,0.5-2,1
	c-0.5,0.4-0.9,0.9-1.1,1.5c-0.2,0.6-0.4,1.2-0.4,1.8c0,0.7,0.1,1.3,0.5,1.9c0.3,0.5,0.7,0.9,1.2,1.3c0.5,0.3,1,0.6,1.6,0.8
	c0.6,0.2,1.2,0.4,1.7,0.6c0.4,0.1,0.8,0.3,1.1,0.4c0.3,0.1,0.7,0.2,1,0.4c0.3,0.1,0.5,0.3,0.7,0.5c0.2,0.2,0.2,0.4,0.2,0.7
	C154.2,20.2,154,20.4,153.5,20.6z M163.3,27.6h-4l8.8-27.1h4L163.3,27.6z M189,8.8h3.1c3.5,0,5.4,2.3,5.4,5.4c0,2.9-2,5.4-5.4,5.4
	H189V8.8z M207.4,16.6h5.7l-2.9-7.9L207.4,16.6z M153.9,28.7h-6.5c-0.2,0-0.5-0.1-0.6-0.3c-0.2-0.2-0.3-0.4-0.3-0.6
	c0-0.2,0.1-0.5,0.3-0.6c0.2-0.2,0.4-0.3,0.6-0.3h6.5c0.2,0,0.5,0.1,0.7,0.3c0.2,0.2,0.3,0.4,0.3,0.6c0,0.2-0.1,0.5-0.3,0.6
	C154.4,28.6,154.2,28.7,153.9,28.7L153.9,28.7z M141.8,28.7h-6.5c-0.2,0-0.5-0.1-0.6-0.3c-0.2-0.2-0.3-0.4-0.3-0.6
	c0-0.2,0.1-0.5,0.3-0.6c0.2-0.2,0.4-0.3,0.6-0.3h6.5c0.2,0,0.5,0.1,0.7,0.3c0.2,0.2,0.3,0.4,0.3,0.6c0,0.2-0.1,0.5-0.3,0.6
	C142.3,28.6,142.1,28.7,141.8,28.7z M129.8,28.7h-6.5c-0.2,0-0.5-0.1-0.7-0.3c-0.2-0.2-0.3-0.4-0.3-0.6c0-0.2,0.1-0.5,0.3-0.6
	c0.2-0.2,0.4-0.3,0.7-0.3h6.5c0.2,0,0.5,0.1,0.6,0.3c0.2,0.2,0.3,0.4,0.3,0.6c0,0.2-0.1,0.5-0.3,0.6C130.3,28.6,130,28.7,129.8,28.7
	z M117.7,28.7h-6.5c-0.2,0-0.5-0.1-0.6-0.3c-0.2-0.2-0.3-0.4-0.3-0.6c0-0.2,0.1-0.5,0.3-0.6c0.2-0.2,0.4-0.3,0.6-0.3h6.5
	c0.2,0,0.5,0.1,0.7,0.3c0.2,0.2,0.3,0.4,0.3,0.6c0,0.2-0.1,0.5-0.3,0.6C118.2,28.6,118,28.7,117.7,28.7z M105.7,28.7h-6.5
	c-0.2,0-0.5-0.1-0.6-0.3c-0.2-0.2-0.3-0.4-0.3-0.6c0-0.2,0.1-0.5,0.3-0.6c0.2-0.2,0.4-0.3,0.6-0.3h6.5c0.2,0,0.5,0.1,0.7,0.3
	c0.2,0.2,0.3,0.4,0.3,0.6c0,0.2-0.1,0.5-0.3,0.6C106.2,28.6,105.9,28.7,105.7,28.7L105.7,28.7z M93.6,28.7h-6.5
	c-0.2,0-0.5-0.1-0.6-0.3c-0.2-0.2-0.3-0.4-0.3-0.6c0-0.2,0.1-0.5,0.3-0.6c0.2-0.2,0.4-0.3,0.6-0.3h6.5c0.2,0,0.5,0.1,0.6,0.3
	c0.2,0.2,0.3,0.4,0.3,0.6c0,0.2-0.1,0.5-0.3,0.6C94.1,28.6,93.9,28.7,93.6,28.7z M81.6,28.7h-6.5c-0.2,0-0.5-0.1-0.6-0.3
	c-0.2-0.2-0.3-0.4-0.3-0.6c0-0.2,0.1-0.5,0.3-0.6c0.2-0.2,0.4-0.3,0.6-0.3h6.5c0.2,0,0.5,0.1,0.6,0.3c0.2,0.2,0.3,0.4,0.3,0.6
	c0,0.2-0.1,0.5-0.3,0.6C82,28.6,81.8,28.7,81.6,28.7z M69.5,28.7H63c-0.2,0-0.5-0.1-0.6-0.3c-0.2-0.2-0.3-0.4-0.3-0.6
	c0-0.2,0.1-0.5,0.3-0.6c0.2-0.2,0.4-0.3,0.6-0.3h6.5c0.2,0,0.5,0.1,0.6,0.3c0.2,0.2,0.3,0.4,0.3,0.6c0,0.2-0.1,0.5-0.3,0.6
	C70,28.6,69.8,28.7,69.5,28.7z M57.5,28.7H51c-0.2,0-0.5-0.1-0.6-0.3c-0.2-0.2-0.3-0.4-0.3-0.6c0-0.2,0.1-0.5,0.3-0.6
	c0.2-0.2,0.4-0.3,0.6-0.3h6.5c0.2,0,0.5,0.1,0.6,0.3c0.2,0.2,0.3,0.4,0.3,0.6c0,0.2-0.1,0.5-0.3,0.6C57.9,28.6,57.7,28.7,57.5,28.7z
	 M45.4,28.7h-6.5c-0.2,0-0.5-0.1-0.6-0.3C38.1,28.3,38,28,38,27.8c0-0.2,0.1-0.5,0.3-0.6c0.2-0.2,0.4-0.3,0.6-0.3h6.5
	c0.2,0,0.5,0.1,0.6,0.3c0.2,0.2,0.3,0.4,0.3,0.6c0,0.2-0.1,0.5-0.3,0.6C45.9,28.6,45.7,28.7,45.4,28.7z M33.4,28.7h-6.5
	c-0.2,0-0.5-0.1-0.6-0.3C26,28.3,26,28,26,27.8c0-0.2,0.1-0.5,0.3-0.6c0.2-0.2,0.4-0.3,0.6-0.3h6.5c0.2,0,0.5,0.1,0.6,0.3
	c0.2,0.2,0.3,0.4,0.3,0.6c0,0.2-0.1,0.5-0.3,0.6C33.8,28.6,33.6,28.7,33.4,28.7z M21.3,28.7h-6.5c-0.2,0-0.5-0.1-0.6-0.3
	c-0.2-0.2-0.3-0.4-0.3-0.6c0-0.2,0.1-0.5,0.3-0.6c0.2-0.2,0.4-0.3,0.6-0.3h6.5c0.2,0,0.5,0.1,0.6,0.3c0.2,0.2,0.3,0.4,0.3,0.6
	c0,0.2-0.1,0.5-0.3,0.6C21.8,28.6,21.6,28.7,21.3,28.7z M216.1,34.8h3v8.9h1.3v-8.9h3.1v-1.1h-7.4V34.8z M229.9,40
	c0,2.6-1.8,3.8-3.6,3.8c-1.9,0-3.4-1.4-3.4-3.7c0-2.4,1.6-3.8,3.6-3.8C228.5,36.3,229.9,37.8,229.9,40z M224.2,40.1
	c0,1.6,0.9,2.7,2.2,2.7s2.2-1.2,2.2-2.8c0-1.2-0.6-2.7-2.2-2.7C224.9,37.3,224.2,38.7,224.2,40.1z M232.7,39.8L232.7,39.8l0-6.6
	h-1.3v10.5h1.3V41l0.7-0.7l2.5,3.4h1.6l-3.2-4.2l2.8-2.9h-1.6l-2.1,2.5l0,0C233.1,39.2,232.9,39.5,232.7,39.8z M239.1,36.5l1.6,4.2
	c0.2,0.5,0.3,1,0.5,1.5h0c0-0.1,0.1-0.3,0.1-0.5v0l0,0c0.1-0.3,0.2-0.7,0.3-1l1.4-4.2h1.4l-2,5.1c-0.9,2.5-1.6,3.7-2.5,4.5
	c-0.5,0.4-1,0.7-1.6,0.8l-0.3-1.1c0.4-0.1,0.8-0.3,1.1-0.6c0.5-0.4,0.8-0.9,1.1-1.5c0.1-0.1,0.1-0.2,0.1-0.3c0-0.1,0-0.2-0.1-0.3
	l-2.7-6.6H239.1z M248.2,43.8c1.7,0,3.6-1.2,3.6-3.8c0-2.2-1.4-3.7-3.5-3.7c-2,0-3.6,1.4-3.6,3.8C244.8,42.4,246.3,43.8,248.2,43.8z
	 M248.3,42.8c-1.3,0-2.2-1.2-2.2-2.7c0-1.4,0.7-2.8,2.2-2.8s2.1,1.5,2.1,2.7C250.5,41.7,249.6,42.8,248.3,42.8z"/>
</svg>
