<svg id="Layer_1" data-name="Layer 1" xmlns="http://www.w3.org/2000/svg" viewBox="0 0 382 115"><defs><style>.cls-1{fill:#fff;}.cls-2{fill:#ff6c37;}</style></defs><circle class="cls-1" cx="56.93" cy="57.67" r="51.7"/><path class="cls-2" d="M140.09,73.66V41a1.27,1.27,0,0,1,.46-1,1.74,1.74,0,0,1,1.19-.42h9.2a10.79,10.79,0,0,1,7.48,2.53c1.88,1.69,2.81,4.34,2.81,8v.43c0,3.64-.95,6.3-2.86,8a11,11,0,0,1-7.6,2.55H144.2V73.66a1.12,1.12,0,0,1-.15.62,1.15,1.15,0,0,1-.45.45,2.77,2.77,0,0,1-1.43.39,2.81,2.81,0,0,1-1.44-.39,1.17,1.17,0,0,1-.47-.44A1.27,1.27,0,0,1,140.09,73.66Zm4.08-16h6.6a6.2,6.2,0,0,0,2.56-.37,6.4,6.4,0,0,0,2.19-1.36,7.13,7.13,0,0,0,1.67-5.18v-.59A7.13,7.13,0,0,0,155.52,45a6.22,6.22,0,0,0-2.19-1.35,6.37,6.37,0,0,0-2.56-.37h-6.56Z"/><path class="cls-2" d="M175.52,64.81V50.16q0-5.47,2.84-8a12.68,12.68,0,0,1,15.25,0c1.91,1.71,2.86,4.39,2.87,8V64.81c0,3.67-.95,6.35-2.87,8a12.63,12.63,0,0,1-15.27,0C176.46,71.15,175.52,68.49,175.52,64.81Zm4.09,0q0,6.9,6.37,6.91a6.35,6.35,0,0,0,2.55-.37A6.16,6.16,0,0,0,190.72,70a7.18,7.18,0,0,0,1.68-5.18V50.16a7.13,7.13,0,0,0-.33-2.75A7.21,7.21,0,0,0,190.72,45,6.35,6.35,0,0,0,186,43.26c-4.25,0-6.36,2.31-6.36,6.9Z"/><path class="cls-2" d="M210.94,70.11a2.47,2.47,0,0,1,.55-1.5,1.65,1.65,0,0,1,.51-.51,1.53,1.53,0,0,1,.68-.23,2,2,0,0,1,1.12.62c.45.4.92.85,1.41,1.34a6.35,6.35,0,0,0,2.3,1.37,9.43,9.43,0,0,0,3.56.6,7.42,7.42,0,0,0,5-1.53,5.56,5.56,0,0,0,1.81-4.49,6.07,6.07,0,0,0-.38-2.35,5.81,5.81,0,0,0-1.27-2,11,11,0,0,0-4-2.55c-1.57-.58-3.13-1.18-4.75-1.87a10.09,10.09,0,0,1-4-3.06,8.32,8.32,0,0,1-1.65-5.33,9.64,9.64,0,0,1,1-4.45,6.81,6.81,0,0,1,2.6-2.85,13.49,13.49,0,0,1,3.38-1.4,15.26,15.26,0,0,1,3.75-.44,18.76,18.76,0,0,1,5.76.87c1.83.6,2.76,1.4,2.76,2.37a2.72,2.72,0,0,1-.49,1.46,1.39,1.39,0,0,1-.53.57,1.49,1.49,0,0,1-.74.22,16.5,16.5,0,0,1-2.18-.87,10.87,10.87,0,0,0-4.52-.93,8.59,8.59,0,0,0-4.75,1.19A4.27,4.27,0,0,0,216,48.2a4.34,4.34,0,0,0,.37,2,4.44,4.44,0,0,0,1.23,1.64,12.6,12.6,0,0,0,4,2.21c1.58.56,3.15,1.19,4.75,1.9a10.12,10.12,0,0,1,4,3.43,10.28,10.28,0,0,1,1.64,6q0,5-2.92,7.57a11.28,11.28,0,0,1-7.72,2.55A13.81,13.81,0,0,1,214,73.7C211.93,72.49,210.94,71.29,210.94,70.11Z"/><path class="cls-2" d="M244.11,41.36a2.06,2.06,0,0,1,.39-1.25,1.16,1.16,0,0,1,.46-.42,1.18,1.18,0,0,1,.61-.13h19.8a1.18,1.18,0,0,1,.61.13,1.23,1.23,0,0,1,.46.42,2.2,2.2,0,0,1,.39,1.25,2.3,2.3,0,0,1-.39,1.33,1.14,1.14,0,0,1-.46.44,1.18,1.18,0,0,1-.61.13h-7.78v30.4a1.12,1.12,0,0,1-.15.62,1.15,1.15,0,0,1-.45.45,2.77,2.77,0,0,1-1.43.39,2.81,2.81,0,0,1-1.44-.39,1.21,1.21,0,0,1-.45-.45,1.32,1.32,0,0,1-.15-.62V43.26h-7.89a1.09,1.09,0,0,1-.61-.13,1.14,1.14,0,0,1-.46-.41A2.29,2.29,0,0,1,244.11,41.36Z"/><path class="cls-2" d="M280.69,73.66v-32a1.82,1.82,0,0,1,.31-1.32,1.79,1.79,0,0,1,1.15-.72,2.29,2.29,0,0,1,.64,0c1.3,0,2.37.86,3.27,2.58l7.63,14.64,7.69-14.64c.94-1.72,2-2.58,3.25-2.58a1.76,1.76,0,0,1,2,1.47v0a1.46,1.46,0,0,1,0,.51v32a1.32,1.32,0,0,1-.15.62,1.15,1.15,0,0,1-.45.45,2.82,2.82,0,0,1-1.44.4,2.78,2.78,0,0,1-1.43-.4,1.15,1.15,0,0,1-.45-.45,1.12,1.12,0,0,1-.15-.62V48.12l-7.35,13.81a1.75,1.75,0,0,1-.62.85,1.49,1.49,0,0,1-1.92,0,1.73,1.73,0,0,1-.57-.83l-7.34-14V73.66a1.22,1.22,0,0,1-.16.62,1.19,1.19,0,0,1-.44.45,2.55,2.55,0,0,1-1.38.45,2.47,2.47,0,0,1-1.43-.39,1.16,1.16,0,0,1-.52-.46A1.2,1.2,0,0,1,280.69,73.66Z"/><path class="cls-2" d="M320.63,73.44a1.37,1.37,0,0,1,.09-.4l10-32c.29-.94,1.1-1.42,2.48-1.42s2.2.48,2.48,1.42l10,32.2a.54.54,0,0,0,0,.18.33.33,0,0,1,0,.14,1.36,1.36,0,0,1-.23.7,1.43,1.43,0,0,1-.57.49,3.17,3.17,0,0,1-1.78.47,1.33,1.33,0,0,1-.89-.19,1.35,1.35,0,0,1-.57-.72l-2.13-7.12H326.7l-2.13,7.11A1.32,1.32,0,0,1,324,75a1.27,1.27,0,0,1-.91.2,3,3,0,0,1-1.65-.49,1.35,1.35,0,0,1-.59-.52A1.32,1.32,0,0,1,320.63,73.44Zm7.06-9.75h10.88l-5.45-18.18Z"/><path class="cls-2" d="M359.74,73.66V41c0-.93.67-1.41,2-1.41a2.66,2.66,0,0,1,1.73.6,6.32,6.32,0,0,1,1.38,2L377,65.87V41a1.21,1.21,0,0,1,.16-.61,1.24,1.24,0,0,1,.44-.44,3,3,0,0,1,1.44-.36,3,3,0,0,1,1.43.36,1.27,1.27,0,0,1,.45.44,1.32,1.32,0,0,1,.16.61V73.66a1.13,1.13,0,0,1-.16.62,1.08,1.08,0,0,1-.45.45,2.51,2.51,0,0,1-1.43.39,2.91,2.91,0,0,1-2.58-1.85L363.82,48.81V73.66a1.18,1.18,0,0,1-.6,1.07,2.84,2.84,0,0,1-2.87,0,1.17,1.17,0,0,1-.46-.45A1.21,1.21,0,0,1,359.74,73.66Z"/><path class="cls-2" d="M89.88,29.34a.53.53,0,0,0-.2.16.61.61,0,0,0-.13.22.73.73,0,0,0,0,.25.72.72,0,0,0,.07.25,1.9,1.9,0,0,1,.19,1.1,2,2,0,0,1-.43,1,.61.61,0,0,0-.14.47.63.63,0,0,0,.24.43.64.64,0,0,0,.46.15.63.63,0,0,0,.44-.22,3.3,3.3,0,0,0,.74-1.71,3.26,3.26,0,0,0-.33-1.84.65.65,0,0,0-.37-.32A.71.71,0,0,0,89.88,29.34Z"/><path class="cls-2" d="M64.71,1.46A56.5,56.5,0,1,0,113.63,64.7,56.57,56.57,0,0,0,64.71,1.46ZM76.36,36.71a4,4,0,0,0-2.8,1.18l-21,21-4.48-4.48C68.77,33.77,72.51,33.57,76.36,36.71ZM53.42,59.59l20.94-20.9a2.92,2.92,0,0,1,4.78,1,3,3,0,0,1,.2,1.16A2.86,2.86,0,0,1,79.06,42a3,3,0,0,1-.71.95L56.19,62.36ZM55,62.86,49.79,64a.22.22,0,0,1-.18,0,.28.28,0,0,1-.14-.12.29.29,0,0,1,0-.18.38.38,0,0,1,.08-.17l3-3ZM41.76,60.7l5.52-5.52,4.15,4.13-9.34,2a.31.31,0,0,1-.23,0,.37.37,0,0,1-.17-.16.35.35,0,0,1,0-.22A.33.33,0,0,1,41.76,60.7ZM24.56,89.23a.33.33,0,0,1-.18-.08.36.36,0,0,1-.11-.16.27.27,0,0,1,0-.2.4.4,0,0,1,.09-.17l4.46-4.46,5.77,5.76ZM36,83.31a1.11,1.11,0,0,0-.48.5,1.05,1.05,0,0,0-.07.7l.95,4.07a.58.58,0,0,1,0,.37.55.55,0,0,1-.25.27.53.53,0,0,1-.37.07.59.59,0,0,1-.33-.15l-5.79-5.78L47.35,65.65l8.59-1.84,4.12,4.12C54.13,73.1,46,78.28,36,83.3ZM60.89,67.17l-4-4L79.09,43.79a3.53,3.53,0,0,0,.56-.6c-.7,6.34-9.57,15.28-18.75,24ZM78.13,36.74a8.58,8.58,0,0,1,11.6-12.63L82.12,31.7a.71.71,0,0,0-.12.18.51.51,0,0,0,0,.44.71.71,0,0,0,.12.18L88,38.37a8.58,8.58,0,0,1-9.86-1.63Zm12.16,0a8,8,0,0,1-1.28,1L83.32,32.1l7.23-7.22a8.57,8.57,0,0,1-.27,11.86Z"/><path class="cls-2" d="M202,106l1.76-5h7.06l1.75,5h2.22l-6.41-17.46H206.2L199.79,106Zm2.43-6.82,2.79-7.88h.14l2.79,7.88ZM218.51,106h2.11V99.62h3.82c4.06,0,5.9-2.47,5.9-5.55s-1.84-5.53-5.93-5.53h-5.9Zm2.11-8.25V90.42h3.72c2.84,0,3.92,1.55,3.92,3.65s-1.08,3.68-3.89,3.68Zm16.24-9.21h-2.12V106h2.12Zm13,17.46H252V99.62h3.82c4.06,0,5.89-2.47,5.89-5.55s-1.83-5.53-5.93-5.53h-5.9ZM252,97.75V90.42h3.71c2.84,0,3.92,1.55,3.92,3.65s-1.08,3.68-3.88,3.68ZM266.08,106h10.23v-1.88h-8.12V88.54h-2.11Zm16.32,0,1.75-5h7.06l1.75,5h2.22l-6.41-17.46h-2.18L280.18,106Zm2.42-6.82,2.79-7.88h.14l2.79,7.88Zm11.08-8.76h5.49V106h2.12V90.42H309V88.54H295.9ZM313.26,106h2.11V98.19h7.57V96.32h-7.57v-5.9h8.35V88.54H313.26Zm29.81-8.73c0-5.52-3.24-9-7.7-9s-7.71,3.45-7.71,9,3.24,9,7.71,9S343.07,102.79,343.07,97.27Zm-2,0c0,4.53-2.49,7-5.66,7s-5.66-2.46-5.66-7,2.49-7,5.66-7S341,92.74,341,97.27Zm6.6,8.73h2.11V99.18H354l3.68,6.83h2.46l-3.95-7.21a4.76,4.76,0,0,0,3.26-4.9c0-3.08-1.84-5.35-5.93-5.35h-5.89Zm2.11-8.73V90.42h3.71c2.83,0,3.93,1.38,3.93,3.47s-1.1,3.38-3.89,3.38ZM364,88.54V106h2V92.74h.17L371.58,106h1.91l5.45-13.26h.17V106h2V88.54h-2.52L372.64,103h-.21L366.5,88.54Z"/></svg>