<svg fill="none" height="213" viewBox="0 0 1032 213" width="1032" xmlns="http://www.w3.org/2000/svg"><path d="m910.568 37.5359-1.515 8.6016h-31.196l1.454-8.3593 19.324-15.0831c1.696-1.4134 2.968-2.7057 3.816-3.8768.888-1.1711 1.332-2.3624 1.332-3.5739 0-1.4135-.444-2.524-1.332-3.3317-.848-.848-2.12-1.272-3.816-1.272-1.697 0-3.15.5451-4.362 1.6355-1.171 1.05-2.039 2.5441-2.605 4.4825l-9.086-1.8778c1.212-4.0787 3.312-7.22859 6.3-9.44967 3.029-2.22108 6.562-3.33162 10.601-3.33162 2.059 0 3.977.26249 5.754.78747 1.777.52499 3.312 1.31246 4.604 2.36243 1.333 1.00958 2.362 2.26146 3.089 3.75564.768 1.45375 1.151 3.12965 1.151 5.02775 0 1.7768-.262 3.3518-.787 4.7248-.525 1.3326-1.252 2.5845-2.181 3.7556-.888 1.1712-1.938 2.2817-3.15 3.3317-1.211 1.0095-2.524 2.0595-3.937 3.1499l-10.904 8.541z" fill="#fff"/><path d="m939.132 2.16019c2.625 0 4.846.44421 6.663 1.33264 1.858.84805 3.352 1.97878 4.483 3.3922 1.171 1.41341 1.999 3.06912 2.484 4.96717.525 1.8576.787 3.7758.787 5.7546 0 2.0191-.162 4.1595-.485 6.4209-.282 2.2615-.747 4.5027-1.393 6.7238-.646 2.1807-1.494 4.2806-2.544 6.2998-1.05 1.9788-2.322 3.7355-3.816 5.27-1.494 1.4942-3.251 2.6855-5.27 3.5739-1.979.8885-4.22 1.3327-6.724 1.3327-2.665 0-4.927-.424-6.784-1.2721-1.818-.848-3.312-1.9586-4.483-3.3316-1.171-1.4134-2.019-3.0287-2.544-4.846-.525-1.8576-.788-3.796-.788-5.8152 0-2.0595.142-4.22.425-6.4815.323-2.3018.827-4.5431 1.514-6.7238.686-2.2211 1.555-4.321 2.605-6.2998 1.09-2.0191 2.382-3.77582 3.876-5.27 1.495-1.53456 3.231-2.74606 5.21-3.63449 2.019-.92882 4.28-1.39322 6.784-1.39322zm-.787 8.23821c-1.454 0-2.787.6057-3.998 1.8172-1.171 1.2115-2.181 2.7865-3.029 4.7249-.848 1.898-1.514 4.0383-1.999 6.4209-.444 2.3826-.666 4.745-.666 7.0873 0 1.1711.081 2.2614.242 3.271.202 1.0096.505 1.898.909 2.6653.444.7269.989 1.3124 1.635 1.7567.687.4442 1.494.6663 2.423.6663 1.414 0 2.706-.5856 3.877-1.7567 1.171-1.2115 2.16-2.7662 2.968-4.6643.848-1.898 1.494-4.0383 1.939-6.4209.484-2.3826.726-4.7854.726-7.2084 0-1.1307-.101-2.2009-.302-3.2105-.162-1.0499-.445-1.9384-.848-2.6653-.364-.7672-.869-1.373-1.515-1.8172s-1.433-.6663-2.362-.6663z" fill="#fff"/><path d="m968.847 46.1375 5.634-31.8018-9.086 5.9364-3.695-7.5113 15.325-9.51026h9.329l-7.572 42.88696z" fill="#fff"/><path d="m1032 15.9107c0 2.2614-.5 4.5431-1.51 6.8449-1.01 2.2615-2.67 4.7653-4.97 7.5113l-13.45 15.8706h-12.477l13.267-14.9014.36-.4846c-.28.0808-.64.1616-1.09.2423-.4.0404-.77.0606-1.09.0606-2.06 0-3.9-.3231-5.51-.9692-1.58-.6865-2.91-1.5951-4-2.7259-1.05-1.1307-1.857-2.423-2.422-3.8768-.565-1.4941-.848-3.0287-.848-4.6036 0-2.2211.404-4.3412 1.211-6.3604.809-2.0596 1.979-3.83642 3.509-5.3306 1.54-1.53456 3.44-2.74606 5.7-3.63449 2.26-.92882 4.82-1.39322 7.69-1.39322 2.18 0 4.22.30287 6.12.90862 1.9.56536 3.55 1.43361 4.97 2.60472 1.41 1.13073 2.52 2.56433 3.33 4.30081.81 1.69606 1.21 3.67486 1.21 5.93636zm-9.87.2423c0-.9288-.19-1.7567-.55-2.4836-.32-.7269-.77-1.3528-1.33-1.8778-.57-.525-1.23-.9086-2-1.1509-.73-.2827-1.49-.4241-2.3-.4241-2.38 0-4.26.7269-5.64 2.1807-1.33 1.4538-1.99 3.3922-1.99 5.8152 0 .9692.16 1.8173.48 2.5442.36.7269.81 1.3528 1.33 1.8778.57.4846 1.19.8682 1.88 1.1509.73.2423 1.45.3635 2.18.3635 1.21 0 2.3-.202 3.27-.6058 1.01-.4038 1.86-.9692 2.55-1.6961.68-.7269 1.21-1.5749 1.57-2.5441s.55-2.0192.55-3.1499z" fill="#fff"/><path d="m715.384 11.5698-6.058 34.2248h-10.055l5.997-34.2248h-11.994l1.575-8.6622h33.801l-1.515 8.6622z" fill="#0ab9a7"/><path d="m735.133 46.6426c-2.181 0-4.22-.3028-6.118-.9086-1.858-.6057-3.473-1.474-4.846-2.6047-1.333-1.1711-2.403-2.5643-3.21-4.1797-.768-1.6557-1.151-3.5133-1.151-5.5728 0-2.5038.424-4.8864 1.272-7.1479.848-2.2614 2.059-4.2402 3.634-5.9363 1.616-1.6961 3.554-3.049 5.815-4.0585 2.262-1.0096 4.826-1.5144 7.693-1.5144 2.221 0 4.281.3029 6.179.9086 1.898.6058 3.534 1.4942 4.907 2.6653 1.373 1.1307 2.443 2.524 3.21 4.1797.808 1.6153 1.212 3.4527 1.212 5.5123 0 2.5441-.424 4.9469-1.273 7.2084-.848 2.2615-2.079 4.2402-3.695 5.9363-1.615 1.6961-3.574 3.049-5.875 4.0586-2.262.9692-4.846 1.4537-7.754 1.4537zm9.026-17.6272c0-1.8173-.566-3.3317-1.696-4.5432-1.091-1.2115-2.645-1.8172-4.665-1.8172-1.292 0-2.463.2625-3.513.7875s-1.938 1.2317-2.665 2.1201-1.293 1.9182-1.696 3.0893c-.404 1.1711-.606 2.4028-.606 3.6951 0 1.8172.545 3.3316 1.635 4.5431 1.091 1.1711 2.645 1.7567 4.665 1.7567 1.292 0 2.463-.2423 3.513-.7269 1.05-.525 1.938-1.2317 2.665-2.1202.768-.8884 1.353-1.9182 1.757-3.0893s.606-2.4028.606-3.695z" fill="#0ab9a7"/><path d="m777.231 45.7946-7.693-14.4774h-.182l-2.544 14.4774h-9.692l8.057-45.7946h9.752l-4.967 27.8644h.182l11.449-12.2361h12.236l-14.538 14.114 9.51 16.0523z" fill="#0ab9a7"/><path d="m806.704 50.3377c-.889 1.575-1.777 2.9884-2.666 4.2403-.848 1.2518-1.797 2.3018-2.847 3.1498-1.009.8481-2.18 1.4942-3.513 1.9384-1.333.4443-2.887.6664-4.664.6664-1.898 0-3.554-.2221-4.967-.6664l1.453-7.9958c.889.3634 1.838.5451 2.847.5451 1.414 0 2.504-.3634 3.271-1.0903.808-.6865 1.575-1.6759 2.302-2.9682l1.454-2.4836-6.966-30.0451h10.601l3.028 19.7474h.121l9.995-19.7474h10.298z" fill="#0ab9a7"/><path d="m840.666 46.6426c-2.181 0-4.22-.3028-6.118-.9086-1.858-.6057-3.473-1.474-4.846-2.6047-1.333-1.1711-2.403-2.5643-3.211-4.1797-.767-1.6557-1.151-3.5133-1.151-5.5728 0-2.5038.424-4.8864 1.272-7.1479.849-2.2614 2.06-4.2402 3.635-5.9363 1.615-1.6961 3.554-3.049 5.815-4.0585 2.262-1.0096 4.826-1.5144 7.693-1.5144 2.221 0 4.281.3029 6.179.9086 1.898.6058 3.533 1.4942 4.906 2.6653 1.373 1.1307 2.444 2.524 3.211 4.1797.807 1.6153 1.211 3.4527 1.211 5.5123 0 2.5441-.424 4.9469-1.272 7.2084s-2.079 4.2402-3.695 5.9363c-1.615 1.6961-3.574 3.049-5.876 4.0586-2.261.9692-4.846 1.4537-7.753 1.4537zm9.025-17.6272c0-1.8173-.565-3.3317-1.696-4.5432-1.09-1.2115-2.645-1.8172-4.664-1.8172-1.292 0-2.463.2625-3.513.7875s-1.939 1.2317-2.666 2.1201c-.726.8884-1.292 1.9182-1.696 3.0893-.403 1.1711-.605 2.4028-.605 3.6951 0 1.8172.545 3.3316 1.635 4.5431 1.091 1.1711 2.645 1.7567 4.664 1.7567 1.293 0 2.464-.2423 3.514-.7269 1.05-.525 1.938-1.2317 2.665-2.1202.767-.8884 1.353-1.9182 1.757-3.0893s.605-2.4028.605-3.695z" fill="#0ab9a7"/><g fill="#fff"><path d="m782.198 212.233v-5.088l10.031-9.086c.63-.606 1.139-1.224 1.527-1.854.387-.63.581-1.333.581-2.108 0-.921-.291-1.66-.872-2.217-.582-.581-1.357-.872-2.326-.872-1.018 0-1.854.363-2.508 1.09-.63.703-1.005 1.636-1.127 2.799l-5.851-.8c.145-1.308.497-2.471 1.054-3.489.581-1.018 1.308-1.878 2.181-2.581.872-.726 1.865-1.272 2.98-1.635 1.139-.388 2.338-.582 3.598-.582 1.187 0 2.338.158 3.453.473 1.114.315 2.108.799 2.98 1.454.872.654 1.563 1.478 2.072 2.471.533.994.799 2.157.799 3.489 0 .921-.121 1.757-.363 2.508-.242.727-.582 1.405-1.018 2.035-.412.63-.896 1.224-1.454 1.781-.533.533-1.09 1.066-1.672 1.599l-5.96 5.307h10.504v5.306z"/><path d="m805.694 212.233v-5.088l10.032-9.086c.63-.606 1.138-1.224 1.526-1.854s.582-1.333.582-2.108c0-.921-.291-1.66-.873-2.217-.581-.581-1.357-.872-2.326-.872-1.017 0-1.853.363-2.508 1.09-.629.703-1.005 1.636-1.126 2.799l-5.852-.8c.146-1.308.497-2.471 1.054-3.489.582-1.018 1.309-1.878 2.181-2.581.872-.726 1.866-1.272 2.98-1.635 1.139-.388 2.338-.582 3.598-.582 1.188 0 2.339.158 3.453.473 1.115.315 2.108.799 2.98 1.454.873.654 1.563 1.478 2.072 2.471.533.994.8 2.157.8 3.489 0 .921-.121 1.757-.364 2.508-.242.727-.581 1.405-1.017 2.035-.412.63-.897 1.224-1.454 1.781-.533.533-1.091 1.066-1.672 1.599l-5.961 5.307h10.504v5.306z"/><path d="m865.281 199.258c0 2.035-.351 3.901-1.054 5.597-.702 1.672-1.684 3.114-2.944 4.325-1.235 1.187-2.713 2.108-4.434 2.762-1.72.655-3.586.982-5.597.982s-3.877-.327-5.597-.982c-1.696-.654-3.174-1.575-4.434-2.762-1.236-1.211-2.205-2.653-2.908-4.325-.702-1.696-1.054-3.562-1.054-5.597 0-2.059.352-3.913 1.054-5.561.703-1.672 1.672-3.089 2.908-4.252 1.26-1.163 2.738-2.06 4.434-2.69 1.72-.63 3.586-.945 5.597-.945s3.877.315 5.597.945c1.721.63 3.199 1.527 4.434 2.69 1.26 1.163 2.242 2.58 2.944 4.252.703 1.648 1.054 3.502 1.054 5.561zm-6.651 0c0-1.115-.181-2.156-.545-3.126-.363-.969-.872-1.793-1.526-2.471-.63-.703-1.406-1.248-2.326-1.636-.897-.412-1.89-.617-2.981-.617-1.09 0-2.084.205-2.98.617-.897.388-1.672.933-2.326 1.636-.654.678-1.163 1.502-1.527 2.471-.339.97-.508 2.011-.508 3.126 0 1.163.181 2.241.545 3.235.363.969.86 1.805 1.49 2.508.654.702 1.429 1.26 2.326 1.671.896.388 1.89.582 2.98.582 1.091 0 2.084-.194 2.981-.582.896-.411 1.671-.969 2.326-1.671.654-.703 1.163-1.539 1.526-2.508.364-.994.545-2.072.545-3.235z"/><path d="m881.512 199.985c-.339-.436-.799-.788-1.381-1.054-.581-.267-1.175-.4-1.781-.4-.63 0-1.199.133-1.708.4-.509.242-.945.581-1.308 1.018-.364.412-.654.896-.872 1.453-.194.558-.291 1.151-.291 1.781s.097 1.224.291 1.781c.193.557.472 1.054.836 1.49.387.412.835.739 1.344.982.533.242 1.127.363 1.781.363.606 0 1.2-.109 1.781-.327.606-.242 1.09-.582 1.454-1.018l3.307 4.035c-.751.727-1.72 1.296-2.907 1.708-1.188.412-2.448.618-3.78.618-1.43 0-2.762-.218-3.998-.655-1.236-.436-2.314-1.066-3.235-1.889-.896-.848-1.611-1.866-2.144-3.053-.509-1.188-.763-2.532-.763-4.035 0-1.478.254-2.81.763-3.998.533-1.187 1.248-2.192 2.144-3.016.921-.848 1.999-1.49 3.235-1.927 1.236-.46 2.556-.69 3.961-.69.655 0 1.297.06 1.927.182.654.121 1.272.29 1.853.508.606.194 1.151.449 1.636.764.509.29.945.618 1.308.981z"/><path d="m893.795 198.604v6.905c0 .848.157 1.491.472 1.927.339.412.933.618 1.781.618.291 0 .594-.025.909-.073.339-.049.617-.121.835-.218l.073 4.361c-.412.146-.933.267-1.563.364-.63.121-1.26.181-1.89.181-1.211 0-2.229-.145-3.053-.436-.823-.315-1.49-.751-1.999-1.308-.484-.582-.835-1.26-1.054-2.036-.218-.799-.327-1.684-.327-2.653v-7.632h-2.907v-4.471h2.871v-4.761h5.852v4.761h4.252v4.471z"/><path d="m920.038 203.111c0 1.478-.266 2.822-.799 4.034-.534 1.187-1.26 2.205-2.181 3.053-.921.824-1.987 1.466-3.199 1.926-1.211.461-2.507.691-3.888.691-1.357 0-2.654-.23-3.889-.691-1.212-.46-2.278-1.102-3.199-1.926-.896-.848-1.611-1.866-2.144-3.053-.533-1.212-.8-2.556-.8-4.034s.267-2.811.8-3.998c.533-1.188 1.248-2.193 2.144-3.017.921-.824 1.987-1.454 3.199-1.89 1.235-.436 2.532-.654 3.889-.654 1.381 0 2.677.218 3.888.654 1.212.436 2.278 1.066 3.199 1.89s1.647 1.829 2.181 3.017c.533 1.187.799 2.52.799 3.998zm-5.742 0c0-.582-.097-1.151-.291-1.709-.194-.557-.473-1.041-.836-1.453-.364-.437-.812-.788-1.345-1.054-.533-.267-1.151-.4-1.853-.4-.703 0-1.321.133-1.854.4-.533.266-.981.617-1.345 1.054-.339.412-.606.896-.799 1.453-.17.558-.255 1.127-.255 1.709 0 .581.085 1.151.255 1.708.193.557.472 1.066.836 1.526.363.436.811.788 1.344 1.054.533.267 1.151.4 1.854.4s1.32-.133 1.854-.4c.533-.266.981-.618 1.344-1.054.364-.46.63-.969.8-1.526.194-.557.291-1.127.291-1.708z"/><path d="m943.983 203.111c0 1.26-.193 2.471-.581 3.634s-.957 2.193-1.708 3.089c-.727.873-1.624 1.575-2.69 2.108s-2.277.8-3.634.8c-1.212 0-2.363-.242-3.453-.727-1.066-.509-1.89-1.223-2.472-2.144h-.072v2.362h-5.488v-27.477h5.96v11.304h.073c.509-.606 1.224-1.163 2.144-1.672.921-.509 2.048-.763 3.38-.763 1.309 0 2.484.254 3.526.763 1.066.509 1.962 1.199 2.689 2.071.752.873 1.321 1.89 1.709 3.053.412 1.139.617 2.339.617 3.599zm-5.742 0c0-.582-.097-1.151-.291-1.709-.169-.557-.436-1.041-.799-1.453-.364-.437-.812-.788-1.345-1.054-.533-.267-1.151-.4-1.854-.4-.678 0-1.284.133-1.817.4-.533.266-.993.617-1.381 1.054-.364.436-.654.932-.872 1.49-.194.557-.291 1.126-.291 1.708 0 .581.097 1.151.291 1.708.218.557.508 1.054.872 1.49.388.436.848.788 1.381 1.054.533.267 1.139.4 1.817.4.703 0 1.321-.133 1.854-.4.533-.266.981-.618 1.345-1.054.363-.436.63-.933.799-1.49.194-.581.291-1.163.291-1.744z"/><path d="m960.236 201.112c0-.945-.303-1.757-.908-2.435-.582-.679-1.466-1.018-2.654-1.018-.581 0-1.114.097-1.599.291-.484.169-.908.412-1.272.727-.363.315-.654.69-.872 1.126-.218.412-.339.848-.364 1.309zm5.488 2.289v.727c0 .243-.012.473-.036.691h-13.121c.049.509.194.969.437 1.381.266.412.593.775.981 1.09.412.291.86.521 1.345.691.508.169 1.029.254 1.562.254.945 0 1.745-.169 2.399-.509.654-.363 1.187-.823 1.599-1.381l4.144 2.617c-.848 1.236-1.975 2.193-3.38 2.871-1.382.655-2.993.982-4.834.982-1.357 0-2.641-.206-3.853-.618-1.211-.436-2.277-1.054-3.198-1.854-.897-.824-1.611-1.829-2.145-3.016-.508-1.188-.763-2.545-.763-4.071 0-1.478.255-2.811.763-3.998.509-1.211 1.2-2.229 2.072-3.053.872-.848 1.902-1.502 3.089-1.963 1.188-.46 2.472-.69 3.853-.69 1.333 0 2.556.23 3.671.69 1.114.437 2.072 1.079 2.871 1.927.8.848 1.418 1.878 1.854 3.089.46 1.212.69 2.593.69 4.143z"/><path d="m981.16 199.004c-.266-.073-.533-.122-.8-.146-.242-.024-.484-.036-.726-.036-.8 0-1.478.145-2.036.436-.533.291-.969.642-1.308 1.054-.315.412-.545.86-.691 1.345-.145.484-.218.908-.218 1.272v9.304h-5.96v-18.1h5.742v2.617h.073c.46-.92 1.114-1.672 1.962-2.253.848-.582 1.83-.872 2.944-.872.243 0 .473.012.691.036.242.024.436.061.581.109z"/><path d="m15.7175 173.319h-15.7175l34.4968-106.144h15.5133z"/><path d="m71.8512 146.783c3.6742 0 6.5319-.204 8.5731-.817 2.0413-.612 2.8577-1.633 2.8577-3.266 0-1.02-.4082-2.041-1.0206-2.653-.6123-.817-1.4288-1.429-2.6536-1.837-1.0206-.613-2.4494-1.021-3.8783-1.633-1.4289-.408-2.8577-1.021-4.4907-1.429-2.2454-.612-4.4907-1.429-6.7361-2.245-2.2453-.817-4.2865-2.042-6.3278-3.266-1.8371-1.225-3.4701-3.062-4.6948-4.899-1.2247-2.042-1.8371-4.491-1.8371-7.553 0-2.449.4082-4.695 1.4289-6.94 1.0206-2.245 2.4494-4.083 4.4907-5.716 2.0412-1.632 4.4907-3.061 7.7566-3.878 3.0619-1.0205 6.9402-1.4287 11.2268-1.4287 3.6742 0 7.3484.2041 10.4103.8167 3.2659.612 6.1237 1.429 8.369 2.449l-2.2454 12.86c-1.4288-.408-3.47-1.021-6.5319-2.041-2.8577-1.021-6.3278-1.429-10.002-1.429-3.8783 0-6.5319.408-7.7567 1.429-1.4288 1.02-2.0412 2.041-2.0412 3.062 0 .816.4082 1.633 1.0206 2.449.6124.612 1.4289 1.429 2.4495 1.837 1.0206.613 2.2453 1.225 3.4701 1.633 1.4288.613 2.8577 1.021 4.2866 1.633 2.2453.817 4.4907 1.633 6.9401 2.45 2.4495.816 4.4907 2.041 6.532 3.47 1.8371 1.429 3.4701 3.062 4.6948 5.103s1.8371 4.695 1.8371 7.756c0 2.45-.4082 4.695-1.4289 6.737-.8165 2.041-2.4494 3.878-4.4907 5.511-2.0412 1.633-4.8989 2.858-8.1649 3.674-3.266.817-7.5525 1.429-12.4515 1.429-4.8989 0-9.1855-.612-12.8597-1.633-3.4701-1.225-6.3278-2.245-8.5732-3.062l2.2454-12.656c2.8577 1.225 5.9195 2.246 9.1855 3.266 3.8783.409 7.1443.817 10.4103.817z"/><path d="m106.144 129.841c0-5.103.817-9.594 2.245-13.472 1.633-3.879 3.675-7.145 6.124-9.594 2.45-2.654 5.511-4.491 8.777-5.92 3.266-1.2245 6.736-2.041 10.002-2.041 8.574 0 14.901 2.449 19.392 7.553 4.491 5.103 6.736 12.451 6.736 22.045v3.062c0 1.02-.204 1.837-.204 2.653h-37.559c0 3.674 1.633 6.736 4.695 8.982 3.062 2.245 7.145 3.266 12.043 3.266 3.062 0 5.92-.409 8.574-1.021 2.653-.612 5.103-1.225 6.94-2.041l2.041 12.86c-2.654.816-5.307 1.632-8.369 2.245-2.858.612-6.328 1.02-10.002 1.02-4.899 0-9.39-.612-13.268-1.837-3.878-1.224-7.144-3.061-10.002-5.715-2.654-2.45-4.899-5.511-6.328-9.186-1.225-3.674-1.837-7.96-1.837-12.859zm38.579-5.92c0-1.633-.204-3.062-.612-4.491-.408-1.428-1.021-2.653-2.041-3.878-.817-1.225-2.042-2.041-3.47-2.858-1.429-.612-3.062-1.02-5.103-1.02-2.042 0-3.675.408-5.104 1.02-1.428.613-2.653 1.633-3.47 2.654-1.02 1.225-1.633 2.449-2.245 3.878s-.816 3.062-1.021 4.491h23.066z"/><path d="m214.125 115.756c-1.021-.204-2.245-.408-3.47-.816-1.429-.204-2.654-.409-4.083-.613s-2.653-.408-4.082-.408c-1.225 0-2.45-.204-3.266-.204-2.041 0-4.287.204-6.328.408s-4.082.613-6.328 1.225v42.866h-15.309v-53.889c4.082-1.429 8.165-2.653 12.247-3.47 4.287-.816 9.186-1.4286 14.901-1.4286.817 0 2.042 0 3.47.2041 1.429 0 3.062.2041 4.899.4085 1.633.204 3.471.408 5.308.816 1.837.204 3.266.613 4.694 1.225z"/><path d="m245.151 158.214c-3.674-7.349-7.348-15.922-11.226-25.72-3.879-9.798-7.349-20.412-10.819-32.047h15.922c.816 3.062 1.633 6.532 2.653 10.002 1.021 3.47 2.042 7.144 3.266 10.614 1.225 3.47 2.246 6.941 3.47 10.411 1.225 3.266 2.246 6.532 3.471 9.185 1.02-2.858 2.245-5.919 3.47-9.185 1.224-3.266 2.653-6.736 3.878-10.411 1.225-3.47 2.449-7.144 3.674-10.614s2.246-6.94 2.858-10.002h15.309c-3.47 11.635-7.348 22.249-11.431 32.047-4.082 9.798-8.165 18.371-11.839 25.72z"/><path d="m283.118 129.841c0-5.103.817-9.594 2.246-13.472 1.633-3.879 3.674-7.145 6.123-9.594 2.45-2.654 5.512-4.491 8.778-5.92 3.266-1.2245 6.736-2.041 10.002-2.041 8.573 0 14.901 2.449 19.391 7.553 4.491 5.103 6.737 12.451 6.737 22.045v3.062c0 1.02-.205 1.837-.205 2.653h-37.558c0 3.674 1.633 6.736 4.695 8.982 3.061 2.245 7.144 3.266 12.043 3.266 3.062 0 5.919-.409 8.573-1.021s5.103-1.225 6.94-2.041l2.041 12.86c-2.653.816-5.307 1.632-8.369 2.245-2.857.612-6.327 1.02-10.002 1.02-4.899 0-9.389-.612-13.268-1.837-3.878-1.224-7.144-3.061-10.002-5.715-2.653-2.45-4.899-5.511-6.327-9.186-1.021-3.674-1.838-7.96-1.838-12.859zm38.784-5.92c0-1.633-.204-3.062-.613-4.491-.408-1.428-1.02-2.653-2.041-3.878-.816-1.225-2.041-2.041-3.47-2.858-1.429-.612-3.062-1.02-5.103-1.02s-3.674.408-5.103 1.02c-1.429.613-2.654 1.633-3.47 2.654-1.021 1.225-1.633 2.449-2.245 3.878-.613 1.429-.817 3.062-1.021 4.491h23.066z"/><path d="m391.099 115.756c-1.02-.204-2.245-.408-3.47-.816-1.428-.204-2.653-.409-4.082-.613s-2.654-.408-4.083-.408c-1.224 0-2.449-.204-3.266-.204-2.041 0-4.286.204-6.327.408-2.042.204-4.083.613-6.328 1.225v42.866h-15.309v-53.889c4.082-1.429 8.165-2.653 12.247-3.47 4.287-.816 9.186-1.4286 14.901-1.4286.816 0 2.041 0 3.47.2041 1.429 0 3.062.2041 4.899.4085 1.633.204 3.47.408 5.307.816 1.837.204 3.266.613 4.695 1.225z"/><path d="m446.009 155.764c-.204.204-.817.409-1.633.817-.817.408-2.041.816-3.47 1.225-1.429.408-3.062.816-5.103 1.224-2.041.409-4.287.409-6.736.409-6.94 0-12.044-2.042-15.309-6.124-3.266-4.083-4.695-10.206-4.695-18.167v-48.9896h-15.922v-12.4515h31.027v62.6661c0 3.878.816 6.532 2.245 7.96 1.633 1.429 3.47 2.042 5.92 2.042 3.062 0 5.511-.409 7.552-1.225 2.041-.817 3.47-1.429 4.083-1.633z"/><path d="m450.703 129.841c0-5.103.817-9.594 2.246-13.472 1.633-3.879 3.674-7.145 6.123-9.594 2.45-2.654 5.512-4.491 8.778-5.92 3.266-1.2245 6.736-2.041 10.002-2.041 8.573 0 14.901 2.449 19.391 7.553 4.491 5.103 6.736 12.451 6.736 22.045v3.062c0 1.02-.204 1.837-.204 2.653h-37.558c0 3.674 1.633 6.736 4.695 8.982 3.061 2.245 7.144 3.266 12.043 3.266 3.062 0 5.919-.409 8.573-1.021s5.103-1.225 6.94-2.041l2.041 12.86c-2.653.816-5.307 1.632-8.369 2.245-2.857.612-6.327 1.02-10.002 1.02-4.899 0-9.389-.612-13.268-1.837-3.878-1.224-7.144-3.061-10.002-5.715-2.653-2.45-4.899-5.511-6.328-9.186-1.02-3.674-1.837-7.96-1.837-12.859zm38.784-5.92c0-1.633-.204-3.062-.613-4.491-.408-1.428-1.02-2.653-2.041-3.878-.816-1.225-2.041-2.041-3.47-2.858-1.429-.612-3.062-1.02-5.103-1.02s-3.674.408-5.103 1.02c-1.429.613-2.654 1.633-3.47 2.654-1.021 1.225-1.633 2.449-2.246 3.878-.612 1.429-.816 3.062-1.02 4.491h23.066z"/><path d="m533.373 146.783c3.675 0 6.532-.204 8.574-.817 2.041-.612 2.857-1.633 2.857-3.266 0-1.02-.408-2.041-1.02-2.653-.613-.817-1.429-1.429-2.654-1.837-1.021-.613-2.449-1.021-3.878-1.633-1.429-.408-2.858-1.021-4.491-1.429-2.245-.612-4.491-1.429-6.736-2.245-2.245-.817-4.287-2.042-6.328-3.266-1.837-1.225-3.47-3.062-4.695-4.899-1.224-2.042-1.837-4.491-1.837-7.553 0-2.449.408-4.695 1.429-6.94s2.45-4.083 4.491-5.716c2.041-1.632 4.49-3.061 7.756-3.878 3.062-1.0205 6.941-1.4287 11.227-1.4287 3.674 0 7.349.2041 10.41.8167 3.266.612 6.124 1.429 8.37 2.449l-2.246 12.86c-1.429-.408-3.47-1.021-6.532-2.041-2.857-1.021-6.328-1.429-10.002-1.429-3.878 0-6.532.408-7.756 1.429-1.429 1.02-2.042 2.041-2.042 3.062 0 .816.409 1.633 1.021 2.449.612.612 1.429 1.429 2.449 1.837 1.021.613 2.246 1.225 3.47 1.633 1.429.613 2.858 1.021 4.287 1.633 2.245.817 4.491 1.633 6.94 2.45 2.45.816 4.491 2.041 6.532 3.47 1.837 1.429 3.47 3.062 4.695 5.103s1.837 4.695 1.837 7.756c0 2.45-.408 4.695-1.429 6.737-.816 2.041-2.449 3.878-4.49 5.511-2.042 1.633-4.899 2.858-8.165 3.674-3.266.817-7.553 1.429-12.452 1.429s-9.185-.612-12.86-1.633c-3.47-1.225-6.327-2.245-8.573-3.062l2.246-12.656c2.857 1.225 5.919 2.246 9.185 3.266 3.878.409 7.144.817 10.41.817z"/><path d="m589.915 146.783c3.675 0 6.532-.204 8.574-.817 2.041-.612 2.857-1.633 2.857-3.266 0-1.02-.408-2.041-1.02-2.653-.613-.817-1.429-1.429-2.654-1.837-1.021-.613-2.449-1.021-3.878-1.633-1.429-.408-2.858-1.021-4.491-1.429-2.245-.612-4.491-1.429-6.736-2.245-2.245-.817-4.287-2.042-6.328-3.266-1.837-1.225-3.47-3.062-4.695-4.899-1.224-2.042-1.837-4.491-1.837-7.553 0-2.449.408-4.695 1.429-6.94s2.45-4.083 4.491-5.716c2.041-1.632 4.49-3.061 7.756-3.878 3.062-1.0205 6.941-1.4287 11.227-1.4287 3.674 0 7.349.2041 10.41.8167 3.266.612 6.124 1.429 8.37 2.449l-2.246 12.86c-1.429-.408-3.47-1.021-6.532-2.041-2.858-1.021-6.328-1.429-10.002-1.429-3.878 0-6.532.408-7.756 1.429-1.429 1.02-2.042 2.041-2.042 3.062 0 .816.409 1.633 1.021 2.449.612.612 1.429 1.429 2.449 1.837 1.021.613 2.246 1.225 3.47 1.633 1.429.613 2.858 1.021 4.287 1.633 2.245.817 4.491 1.633 6.94 2.45 2.45.816 4.491 2.041 6.532 3.47 1.837 1.429 3.47 3.062 4.695 5.103s1.837 4.695 1.837 7.756c0 2.45-.408 4.695-1.429 6.737-.816 2.041-2.449 3.878-4.49 5.511-2.042 1.633-4.899 2.858-8.165 3.674-3.266.817-7.553 1.429-12.452 1.429s-9.185-.612-12.86-1.633c-3.47-1.225-6.327-2.245-8.573-3.062l2.246-12.656c2.857 1.225 5.919 2.246 9.185 3.266 3.674.409 6.94.817 10.41.817z"/><path d="m636.659 173.319h-15.717l34.496-106.144h15.514z"/><path d="m748.928 99.8347h-12.248v42.2533h12.248c13.268 0 21.228-9.594 21.228-21.025-.204-12.043-7.348-21.2283-21.228-21.2283z"/><path d="m808.531 130.453h22.25l-11.023-30.8225z"/><path d="m694.835 65.7461-31.231 108.3889h326.597l31.229-108.3889zm54.092 88.7939h-26.536v-67.361h26.536c21.229 0 35.722 13.472 35.722 33.884 0 20.209-14.697 33.477-35.722 33.477zm90.019 0-4.287-11.635h-30.21l-4.287 11.635h-15.717l26.128-67.5651h17.962l25.924 67.5651zm47.152 0h-14.289v-27.557l-25.923-39.804h16.33l16.738 27.148 16.534-27.148h16.33l-25.72 39.804zm53.072 1.224c-12.86 0-22.249-4.286-28.577-10.818l7.961-11.023c4.694 4.899 12.043 9.186 21.432 9.186 7.961 0 11.84-3.675 11.84-7.553 0-5.103-5.92-6.736-13.677-8.573-11.022-2.45-25.107-5.511-25.107-20.616 0-11.2272 9.798-20.4127 25.516-20.4127 10.818 0 19.595 3.2659 26.331 9.3896l-7.96 10.6141c-5.512-5.103-12.656-7.3481-19.392-7.3481-6.532 0-10.002 2.8581-10.002 6.9401 0 4.491 5.715 5.92 13.472 7.757 11.227 2.449 25.311 5.919 25.311 20.82 0 12.452-8.777 21.637-27.148 21.637z"/></g><path d="m599.917 177.81h-25.311c-2.041 0-3.674-1.633-3.674-3.675 0-2.041 1.633-3.674 3.674-3.674h25.311c2.041 0 3.674 1.633 3.674 3.674 0 2.042-1.633 3.675-3.674 3.675zm-46.948 0h-25.311c-2.041 0-3.675-1.633-3.675-3.675 0-2.041 1.634-3.674 3.675-3.674h25.311c2.041 0 3.674 1.633 3.674 3.674 0 2.042-1.633 3.675-3.674 3.675zm-46.948 0h-25.312c-2.041 0-3.674-1.633-3.674-3.675 0-2.041 1.633-3.674 3.674-3.674h25.312c2.041 0 3.674 1.633 3.674 3.674 0 2.042-1.837 3.675-3.674 3.675zm-46.949 0h-25.311c-2.041 0-3.674-1.633-3.674-3.675 0-2.041 1.633-3.674 3.674-3.674h25.311c2.042 0 3.675 1.633 3.675 3.674 0 2.042-1.837 3.675-3.675 3.675zm-47.152 0h-25.311c-2.041 0-3.674-1.633-3.674-3.675 0-2.041 1.633-3.674 3.674-3.674h25.311c2.041 0 3.674 1.633 3.674 3.674 0 2.042-1.633 3.675-3.674 3.675zm-46.948 0h-25.311c-2.042 0-3.675-1.633-3.675-3.675 0-2.041 1.633-3.674 3.675-3.674h25.311c2.041 0 3.674 1.633 3.674 3.674 0 2.042-1.633 3.675-3.674 3.675zm-46.949 0h-25.311c-2.041 0-3.674-1.633-3.674-3.675 0-2.041 1.633-3.674 3.674-3.674h25.311c2.042 0 3.675 1.633 3.675 3.674 0 2.042-1.633 3.675-3.675 3.675zm-46.948 0h-25.311c-2.041 0-3.674-1.633-3.674-3.675 0-2.041 1.633-3.674 3.674-3.674h25.311c2.041 0 3.674 1.633 3.674 3.674 0 2.042-1.633 3.675-3.674 3.675zm-46.948 0h-25.311c-2.042 0-3.675-1.633-3.675-3.675 0-2.041 1.633-3.674 3.675-3.674h25.311c2.041 0 3.674 1.633 3.674 3.674 0 2.042-1.837 3.675-3.674 3.675zm-47.152 0h-25.108c-2.041 0-3.674-1.633-3.674-3.675 0-2.041 1.633-3.674 3.674-3.674h25.312c2.041 0 3.674 1.633 3.674 3.674 0 2.042-1.837 3.675-3.878 3.675zm-46.949 0h-25.311c-2.041 0-3.674-1.633-3.674-3.675 0-2.041 1.633-3.674 3.674-3.674h25.311c2.041 0 3.674 1.633 3.674 3.674 0 2.042-1.633 3.675-3.674 3.675zm-46.948 0h-25.3113c-2.0412 0-3.6742-1.633-3.6742-3.675 0-2.041 1.633-3.674 3.6742-3.674h25.3113c2.0412 0 3.6742 1.633 3.6742 3.674 0 2.042-1.633 3.675-3.6742 3.675z" fill="#0ab9a7"/></svg>