<?xml version="1.0" encoding="utf-8"?>
<!-- Generator: Adobe Illustrator 27.5.0, SVG Export Plug-In . SVG Version: 6.00 Build 0)  -->
<svg version="1.1" id="Layer_1" xmlns="http://www.w3.org/2000/svg" xmlns:xlink="http://www.w3.org/1999/xlink" x="0px" y="0px"
	 viewBox="0 0 1032 213" style="enable-background:new 0 0 1032 213;" xml:space="preserve">
<style type="text/css">
	.st0{fill:#0AB9A7;}
	.st1{display:none;fill:#FFFFFF;}
	.st2{fill:#FFFFFF;}
</style>
<g id="Layer_1_00000093134943658665577530000018154051085187257246_">
	<path class="st0" d="M715.4,11.6l-6.1,34.2h-10.1l6-34.2h-12l1.6-8.7h33.8l-1.5,8.7L715.4,11.6z"/>
	<path class="st0" d="M735.1,46.6c-2.2,0-4.2-0.3-6.1-0.9c-1.9-0.6-3.5-1.5-4.8-2.6c-1.3-1.2-2.4-2.6-3.2-4.2
		c-0.8-1.7-1.2-3.5-1.2-5.6c0-2.5,0.4-4.9,1.3-7.1c0.8-2.3,2.1-4.2,3.6-5.9c1.6-1.7,3.6-3,5.8-4.1c2.3-1,4.8-1.5,7.7-1.5
		c2.2,0,4.3,0.3,6.2,0.9c1.9,0.6,3.5,1.5,4.9,2.7c1.4,1.1,2.4,2.5,3.2,4.2c0.8,1.6,1.2,3.5,1.2,5.5c0,2.5-0.4,4.9-1.3,7.2
		c-0.8,2.3-2.1,4.2-3.7,5.9c-1.6,1.7-3.6,3-5.9,4.1C740.6,46.2,738,46.6,735.1,46.6L735.1,46.6z M744.2,29c0-1.8-0.6-3.3-1.7-4.5
		c-1.1-1.2-2.6-1.8-4.7-1.8c-1.3,0-2.5,0.3-3.5,0.8s-1.9,1.2-2.7,2.1s-1.3,1.9-1.7,3.1s-0.6,2.4-0.6,3.7c0,1.8,0.5,3.3,1.6,4.5
		s2.6,1.8,4.7,1.8c1.3,0,2.5-0.2,3.5-0.7s1.9-1.2,2.7-2.1c0.8-0.9,1.4-1.9,1.8-3.1S744.2,30.3,744.2,29L744.2,29z"/>
	<path class="st0" d="M777.2,45.8l-7.7-14.5h-0.2l-2.5,14.5h-9.7L765.2,0h9.8l-5,27.9h0.2l11.4-12.2h12.2l-14.5,14.1l9.5,16.1h-11.6
		V45.8z"/>
	<path class="st0" d="M806.7,50.3c-0.9,1.6-1.8,3-2.7,4.2c-0.8,1.3-1.8,2.3-2.8,3.1s-2.2,1.5-3.5,1.9s-2.9,0.7-4.7,0.7
		c-1.9,0-3.6-0.2-5-0.7l1.5-8c0.9,0.4,1.8,0.5,2.8,0.5c1.4,0,2.5-0.4,3.3-1.1c0.8-0.7,1.6-1.7,2.3-3l1.5-2.5l-7-30H803l3,19.7h0.1
		l10-19.7h10.3L806.7,50.3z"/>
	<path class="st0" d="M840.7,46.6c-2.2,0-4.2-0.3-6.1-0.9c-1.9-0.6-3.5-1.5-4.8-2.6c-1.3-1.2-2.4-2.6-3.2-4.2
		c-0.8-1.7-1.2-3.5-1.2-5.6c0-2.5,0.4-4.9,1.3-7.1c0.8-2.3,2.1-4.2,3.6-5.9c1.6-1.7,3.6-3,5.8-4.1c2.3-1,4.8-1.5,7.7-1.5
		c2.2,0,4.3,0.3,6.2,0.9c1.9,0.6,3.5,1.5,4.9,2.7c1.4,1.1,2.4,2.5,3.2,4.2c0.8,1.6,1.2,3.5,1.2,5.5c0,2.5-0.4,4.9-1.3,7.2
		s-2.1,4.2-3.7,5.9c-1.6,1.7-3.6,3-5.9,4.1C846.2,46.2,843.6,46.6,840.7,46.6L840.7,46.6z M849.7,29c0-1.8-0.6-3.3-1.7-4.5
		c-1.1-1.2-2.6-1.8-4.7-1.8c-1.3,0-2.5,0.3-3.5,0.8s-1.9,1.2-2.7,2.1c-0.7,0.9-1.3,1.9-1.7,3.1s-0.6,2.4-0.6,3.7
		c0,1.8,0.5,3.3,1.6,4.5s2.6,1.8,4.7,1.8c1.3,0,2.5-0.2,3.5-0.7s1.9-1.2,2.7-2.1c0.8-0.9,1.4-1.9,1.8-3.1S849.7,30.3,849.7,29z"/>
	<g>
		<path class="st1" d="M782.2,212.2v-5.1l10-9.1c0.6-0.6,1.1-1.2,1.5-1.9c0.4-0.6,0.6-1.3,0.6-2.1c0-0.9-0.3-1.7-0.9-2.2
			c-0.6-0.6-1.4-0.9-2.3-0.9c-1,0-1.9,0.4-2.5,1.1c-0.6,0.7-1,1.6-1.1,2.8l-5.9-0.8c0.1-1.3,0.5-2.5,1.1-3.5s1.3-1.9,2.2-2.6
			c0.9-0.7,1.9-1.3,3-1.6c1.1-0.4,2.3-0.6,3.6-0.6c1.2,0,2.3,0.2,3.5,0.5c1.1,0.3,2.1,0.8,3,1.5s1.6,1.5,2.1,2.5s0.8,2.2,0.8,3.5
			c0,0.9-0.1,1.8-0.4,2.5c-0.2,0.7-0.6,1.4-1,2s-0.9,1.2-1.5,1.8c-0.5,0.5-1.1,1.1-1.7,1.6l-6,5.3h10.5v5.3H782.2z"/>
		<path class="st1" d="M805.7,212.2v-5.1l10-9.1c0.6-0.6,1.1-1.2,1.5-1.9s0.6-1.3,0.6-2.1c0-0.9-0.3-1.7-0.9-2.2
			c-0.6-0.6-1.4-0.9-2.3-0.9c-1,0-1.9,0.4-2.5,1.1c-0.6,0.7-1,1.6-1.1,2.8l-5.9-0.8c0.1-1.3,0.5-2.5,1.1-3.5s1.3-1.9,2.2-2.6
			c0.9-0.7,1.9-1.3,3-1.6c1.1-0.4,2.3-0.6,3.6-0.6c1.2,0,2.3,0.2,3.5,0.5c1.1,0.3,2.1,0.8,3,1.5s1.6,1.5,2.1,2.5s0.8,2.2,0.8,3.5
			c0,0.9-0.1,1.8-0.4,2.5c-0.2,0.7-0.6,1.4-1,2s-0.9,1.2-1.5,1.8c-0.5,0.5-1.1,1.1-1.7,1.6l-6,5.3h10.5v5.3H805.7z"/>
		<path class="st1" d="M865.3,199.3c0,2-0.4,3.9-1.1,5.6c-0.7,1.7-1.7,3.1-2.9,4.3s-2.7,2.1-4.4,2.8s-3.6,1-5.6,1s-3.9-0.3-5.6-1
			c-1.7-0.7-3.2-1.6-4.4-2.8s-2.2-2.7-2.9-4.3c-0.7-1.7-1.1-3.6-1.1-5.6c0-2.1,0.4-3.9,1.1-5.6c0.7-1.7,1.7-3.1,2.9-4.3
			c1.3-1.2,2.7-2.1,4.4-2.7c1.7-0.6,3.6-0.9,5.6-0.9s3.9,0.3,5.6,0.9c1.7,0.6,3.2,1.5,4.4,2.7c1.3,1.2,2.2,2.6,2.9,4.3
			C864.9,195.3,865.3,197.2,865.3,199.3z M858.6,199.3c0-1.1-0.2-2.2-0.5-3.1c-0.4-1-0.9-1.8-1.5-2.5s-1.4-1.2-2.3-1.6
			c-0.9-0.4-1.9-0.6-3-0.6s-2.1,0.2-3,0.6c-0.9,0.4-1.7,0.9-2.3,1.6c-0.7,0.7-1.2,1.5-1.5,2.5s-0.5,2-0.5,3.1c0,1.2,0.2,2.2,0.5,3.2
			c0.4,1,0.9,1.8,1.5,2.5c0.7,0.7,1.4,1.3,2.3,1.7c0.9,0.4,1.9,0.6,3,0.6s2.1-0.2,3-0.6c0.9-0.4,1.7-1,2.3-1.7
			c0.7-0.7,1.2-1.5,1.5-2.5C858.4,201.5,858.6,200.4,858.6,199.3z"/>
		<path class="st1" d="M881.5,200c-0.3-0.4-0.8-0.8-1.4-1.1c-0.6-0.3-1.2-0.4-1.8-0.4s-1.2,0.1-1.7,0.4c-0.5,0.2-0.9,0.6-1.3,1
			c-0.4,0.4-0.7,0.9-0.9,1.5s-0.3,1.2-0.3,1.8s0.1,1.2,0.3,1.8s0.5,1.1,0.8,1.5c0.4,0.4,0.8,0.7,1.3,1c0.5,0.2,1.1,0.4,1.8,0.4
			c0.6,0,1.2-0.1,1.8-0.3s1.1-0.6,1.5-1l3.3,4c-0.8,0.7-1.7,1.3-2.9,1.7s-2.4,0.6-3.8,0.6c-1.4,0-2.8-0.2-4-0.7
			c-1.2-0.4-2.3-1.1-3.2-1.9c-0.9-0.8-1.6-1.9-2.1-3.1c-0.5-1.2-0.8-2.5-0.8-4s0.3-2.8,0.8-4s1.2-2.2,2.1-3c0.9-0.8,2-1.5,3.2-1.9
			c1.2-0.5,2.6-0.7,4-0.7c0.7,0,1.3,0.1,1.9,0.2c0.7,0.1,1.3,0.3,1.9,0.5c0.6,0.2,1.2,0.4,1.6,0.8c0.5,0.3,0.9,0.6,1.3,1L881.5,200z
			"/>
		<path class="st1" d="M893.8,198.6v6.9c0,0.8,0.2,1.5,0.5,1.9s0.9,0.6,1.8,0.6c0.3,0,0.6,0,0.9-0.1c0.3,0,0.6-0.1,0.8-0.2l0.1,4.4
			c-0.4,0.1-0.9,0.3-1.6,0.4c-0.6,0.1-1.3,0.2-1.9,0.2c-1.2,0-2.2-0.1-3.1-0.4c-0.8-0.3-1.5-0.8-2-1.3c-0.5-0.6-0.8-1.3-1.1-2
			c-0.2-0.8-0.3-1.7-0.3-2.7v-7.6H885v-4.5h2.9v-4.8h5.9v4.8h4.3v4.5L893.8,198.6z"/>
		<path class="st1" d="M920,203.1c0,1.5-0.3,2.8-0.8,4s-1.3,2.2-2.2,3.1c-0.9,0.8-2,1.5-3.2,1.9c-1.2,0.5-2.5,0.7-3.9,0.7
			s-2.7-0.2-3.9-0.7s-2.3-1.1-3.2-1.9c-0.9-0.8-1.6-1.9-2.1-3.1c-0.5-1.2-0.8-2.6-0.8-4s0.3-2.8,0.8-4s1.2-2.2,2.1-3
			c0.9-0.8,2-1.5,3.2-1.9s2.5-0.7,3.9-0.7s2.7,0.2,3.9,0.7c1.2,0.4,2.3,1.1,3.2,1.9s1.6,1.8,2.2,3C919.8,200.3,920,201.6,920,203.1z
			 M914.3,203.1c0-0.6-0.1-1.2-0.3-1.7c-0.2-0.6-0.5-1-0.8-1.5c-0.4-0.4-0.8-0.8-1.3-1.1s-1.2-0.4-1.9-0.4s-1.3,0.1-1.9,0.4
			c-0.5,0.3-1,0.6-1.3,1.1c-0.3,0.4-0.6,0.9-0.8,1.5s-0.3,1.1-0.3,1.7c0,0.6,0.1,1.2,0.3,1.7c0.2,0.6,0.5,1.1,0.8,1.5
			c0.4,0.4,0.8,0.8,1.3,1.1s1.2,0.4,1.9,0.4s1.3-0.1,1.9-0.4c0.5-0.3,1-0.6,1.3-1.1c0.4-0.5,0.6-1,0.8-1.5S914.3,203.7,914.3,203.1z
			"/>
		<path class="st1" d="M944,203.1c0,1.3-0.2,2.5-0.6,3.6s-1,2.2-1.7,3.1c-0.7,0.9-1.6,1.6-2.7,2.1s-2.3,0.8-3.6,0.8
			c-1.2,0-2.4-0.2-3.5-0.7s-1.9-1.2-2.5-2.1h-0.1v2.4h-5.5v-27.5h6v11.3h0.1c0.5-0.6,1.2-1.2,2.1-1.7c0.9-0.5,2-0.8,3.4-0.8
			c1.3,0,2.5,0.3,3.5,0.8c1.1,0.5,2,1.2,2.7,2.1c0.8,0.9,1.3,1.9,1.7,3.1C943.8,200.7,944,201.9,944,203.1L944,203.1z M938.2,203.1
			c0-0.6-0.1-1.2-0.3-1.7c-0.2-0.6-0.4-1-0.8-1.5c-0.4-0.4-0.8-0.8-1.3-1.1s-1.2-0.4-1.9-0.4s-1.3,0.1-1.8,0.4
			c-0.5,0.3-1,0.6-1.4,1.1c-0.4,0.4-0.7,0.9-0.9,1.5s-0.3,1.1-0.3,1.7c0,0.6,0.1,1.2,0.3,1.7c0.2,0.6,0.5,1.1,0.9,1.5
			s0.8,0.8,1.4,1.1c0.5,0.3,1.1,0.4,1.8,0.4s1.3-0.1,1.9-0.4c0.5-0.3,1-0.6,1.3-1.1c0.4-0.4,0.6-0.9,0.8-1.5
			C938.1,204.3,938.2,203.7,938.2,203.1L938.2,203.1z"/>
		<path class="st1" d="M960.2,201.1c0-0.9-0.3-1.8-0.9-2.4c-0.6-0.7-1.5-1-2.7-1c-0.6,0-1.1,0.1-1.6,0.3s-0.9,0.4-1.3,0.7
			c-0.4,0.3-0.7,0.7-0.9,1.1c-0.2,0.4-0.3,0.8-0.4,1.3L960.2,201.1z M965.7,203.4v0.7c0,0.2,0,0.5,0,0.7h-13.1c0,0.5,0.2,1,0.4,1.4
			c0.3,0.4,0.6,0.8,1,1.1s0.9,0.5,1.3,0.7c0.5,0.2,1,0.3,1.6,0.3c0.9,0,1.7-0.2,2.4-0.5c0.7-0.4,1.2-0.8,1.6-1.4l4.1,2.6
			c-0.8,1.2-2,2.2-3.4,2.9s-3,1-4.8,1c-1.4,0-2.6-0.2-3.9-0.6c-1.2-0.4-2.3-1.1-3.2-1.9c-0.9-0.8-1.6-1.8-2.1-3s-0.8-2.5-0.8-4.1
			c0-1.5,0.3-2.8,0.8-4s1.2-2.2,2.1-3.1c0.9-0.8,1.9-1.5,3.1-2c1.2-0.5,2.5-0.7,3.9-0.7c1.3,0,2.6,0.2,3.7,0.7
			c1.1,0.4,2.1,1.1,2.9,1.9c0.8,0.8,1.4,1.9,1.9,3.1C965.5,200.5,965.7,201.9,965.7,203.4z"/>
		<path class="st1" d="M981.2,199c-0.3-0.1-0.5-0.1-0.8-0.1c-0.2,0-0.5,0-0.7,0c-0.8,0-1.5,0.1-2,0.4c-0.5,0.3-1,0.6-1.3,1.1
			c-0.3,0.4-0.5,0.9-0.7,1.3c-0.1,0.5-0.2,0.9-0.2,1.3v9.3h-6v-18.1h5.7v2.6h0.1c0.5-0.9,1.1-1.7,2-2.3c0.8-0.6,1.8-0.9,2.9-0.9
			c0.2,0,0.5,0,0.7,0s0.4,0.1,0.6,0.1L981.2,199z"/>
		<path class="st2" d="M15.7,173.3H0L34.5,67.2H50L15.7,173.3z"/>
		<path class="st2" d="M71.9,146.8c3.7,0,6.5-0.2,8.6-0.8c2-0.6,2.9-1.6,2.9-3.3c0-1-0.4-2-1-2.7c-0.6-0.8-1.4-1.4-2.7-1.8
			c-1-0.6-2.4-1-3.9-1.6c-1.4-0.4-2.9-1-4.5-1.4c-2.2-0.6-4.5-1.4-6.7-2.2c-2.2-0.8-4.3-2-6.3-3.3c-1.8-1.2-3.5-3.1-4.7-4.9
			c-1.2-2-1.8-4.5-1.8-7.6c0-2.4,0.4-4.7,1.4-6.9c1-2.2,2.4-4.1,4.5-5.7c2-1.6,4.5-3.1,7.8-3.9c3.1-1,6.9-1.4,11.2-1.4
			c3.7,0,7.3,0.2,10.4,0.8c3.3,0.6,6.1,1.4,8.4,2.4l-2.2,12.9c-1.4-0.4-3.5-1-6.5-2c-2.9-1-6.3-1.4-10-1.4c-3.9,0-6.5,0.4-7.8,1.4
			c-1.4,1-2,2-2,3.1c0,0.8,0.4,1.6,1,2.4c0.6,0.6,1.4,1.4,2.4,1.8c1,0.6,2.2,1.2,3.5,1.6c1.4,0.6,2.9,1,4.3,1.6
			c2.2,0.8,4.5,1.6,6.9,2.4s4.5,2,6.5,3.5c1.8,1.4,3.5,3.1,4.7,5.1s1.8,4.7,1.8,7.8c0,2.4-0.4,4.7-1.4,6.7c-0.8,2-2.4,3.9-4.5,5.5
			c-2,1.6-4.9,2.9-8.2,3.7c-3.3,0.8-7.6,1.4-12.5,1.4s-9.2-0.6-12.9-1.6c-3.5-1.2-6.3-2.2-8.6-3.1l2.2-12.7c2.9,1.2,5.9,2.2,9.2,3.3
			C65.3,146.4,68.6,146.8,71.9,146.8L71.9,146.8z"/>
		<path class="st2" d="M106.1,129.8c0-5.1,0.8-9.6,2.2-13.5c1.6-3.9,3.7-7.1,6.1-9.6c2.4-2.7,5.5-4.5,8.8-5.9c3.3-1.2,6.7-2,10-2
			c8.6,0,14.9,2.4,19.4,7.6c4.5,5.1,6.7,12.5,6.7,22v3.1c0,1-0.2,1.8-0.2,2.7h-37.6c0,3.7,1.6,6.7,4.7,9c3.1,2.2,7.1,3.3,12,3.3
			c3.1,0,5.9-0.4,8.6-1c2.7-0.6,5.1-1.2,6.9-2l2,12.9c-2.7,0.8-5.3,1.6-8.4,2.2c-2.9,0.6-6.3,1-10,1c-4.9,0-9.4-0.6-13.3-1.8
			s-7.1-3.1-10-5.7c-2.7-2.4-4.9-5.5-6.3-9.2C106.8,139,106.1,134.7,106.1,129.8L106.1,129.8z M144.7,123.9c0-1.6-0.2-3.1-0.6-4.5
			c-0.4-1.4-1-2.7-2-3.9c-0.8-1.2-2-2-3.5-2.9c-1.4-0.6-3.1-1-5.1-1s-3.7,0.4-5.1,1c-1.4,0.6-2.7,1.6-3.5,2.7
			c-1,1.2-1.6,2.4-2.2,3.9s-0.8,3.1-1,4.5h23.1L144.7,123.9z"/>
		<path class="st2" d="M214.1,115.8c-1-0.2-2.2-0.4-3.5-0.8c-1.4-0.2-2.7-0.4-4.1-0.6s-2.7-0.4-4.1-0.4c-1.2,0-2.4-0.2-3.3-0.2
			c-2,0-4.3,0.2-6.3,0.4s-4.1,0.6-6.3,1.2v42.9h-15.3v-53.9c4.1-1.4,8.2-2.7,12.2-3.5c4.3-0.8,9.2-1.4,14.9-1.4c0.8,0,2,0,3.5,0.2
			c1.4,0,3.1,0.2,4.9,0.4c1.6,0.2,3.5,0.4,5.3,0.8c1.8,0.2,3.3,0.6,4.7,1.2L214.1,115.8z"/>
		<path class="st2" d="M245.2,158.2c-3.7-7.3-7.3-15.9-11.2-25.7s-7.3-20.4-10.8-32H239c0.8,3.1,1.6,6.5,2.7,10
			c1,3.5,2,7.1,3.3,10.6c1.2,3.5,2.2,6.9,3.5,10.4c1.2,3.3,2.2,6.5,3.5,9.2c1-2.9,2.2-5.9,3.5-9.2c1.2-3.3,2.7-6.7,3.9-10.4
			c1.2-3.5,2.4-7.1,3.7-10.6s2.2-6.9,2.9-10h15.3c-3.5,11.6-7.3,22.2-11.4,32s-8.2,18.4-11.8,25.7H245.2z"/>
		<path class="st2" d="M283.1,129.8c0-5.1,0.8-9.6,2.2-13.5c1.6-3.9,3.7-7.1,6.1-9.6c2.5-2.7,5.5-4.5,8.8-5.9c3.3-1.2,6.7-2,10-2
			c8.6,0,14.9,2.4,19.4,7.6c4.5,5.1,6.7,12.5,6.7,22v3.1c0,1-0.2,1.8-0.2,2.7h-37.6c0,3.7,1.6,6.7,4.7,9c3.1,2.2,7.1,3.3,12,3.3
			c3.1,0,5.9-0.4,8.6-1s5.1-1.2,6.9-2l2,12.9c-2.7,0.8-5.3,1.6-8.4,2.2c-2.9,0.6-6.3,1-10,1c-4.9,0-9.4-0.6-13.3-1.8
			s-7.1-3.1-10-5.7c-2.7-2.4-4.9-5.5-6.3-9.2C283.9,139,283.1,134.7,283.1,129.8L283.1,129.8z M321.9,123.9c0-1.6-0.2-3.1-0.6-4.5
			s-1-2.7-2-3.9c-0.8-1.2-2-2-3.5-2.9c-1.4-0.6-3.1-1-5.1-1s-3.7,0.4-5.1,1s-2.7,1.6-3.5,2.7c-1,1.2-1.6,2.4-2.2,3.9
			c-0.6,1.4-0.8,3.1-1,4.5H322L321.9,123.9z"/>
		<path class="st2" d="M391.1,115.8c-1-0.2-2.2-0.4-3.5-0.8c-1.4-0.2-2.7-0.4-4.1-0.6s-2.7-0.4-4.1-0.4c-1.2,0-2.4-0.2-3.3-0.2
			c-2,0-4.3,0.2-6.3,0.4c-2,0.2-4.1,0.6-6.3,1.2v42.9h-15.3v-53.9c4.1-1.4,8.2-2.7,12.2-3.5c4.3-0.8,9.2-1.4,14.9-1.4
			c0.8,0,2,0,3.5,0.2c1.4,0,3.1,0.2,4.9,0.4c1.6,0.2,3.5,0.4,5.3,0.8c1.8,0.2,3.3,0.6,4.7,1.2L391.1,115.8z"/>
		<path class="st2" d="M446,155.8c-0.2,0.2-0.8,0.4-1.6,0.8c-0.8,0.4-2,0.8-3.5,1.2c-1.4,0.4-3.1,0.8-5.1,1.2s-4.3,0.4-6.7,0.4
			c-6.9,0-12-2-15.3-6.1s-4.7-10.2-4.7-18.2v-49h-15.9V73.7h31v62.7c0,3.9,0.8,6.5,2.2,8c1.6,1.4,3.5,2,5.9,2c3.1,0,5.5-0.4,7.6-1.2
			c2-0.8,3.5-1.4,4.1-1.6L446,155.8z"/>
		<path class="st2" d="M450.7,129.8c0-5.1,0.8-9.6,2.2-13.5c1.6-3.9,3.7-7.1,6.1-9.6c2.5-2.7,5.5-4.5,8.8-5.9c3.3-1.2,6.7-2,10-2
			c8.6,0,14.9,2.4,19.4,7.6c4.5,5.1,6.7,12.5,6.7,22v3.1c0,1-0.2,1.8-0.2,2.7h-37.6c0,3.7,1.6,6.7,4.7,9c3.1,2.2,7.1,3.3,12,3.3
			c3.1,0,5.9-0.4,8.6-1s5.1-1.2,6.9-2l2,12.9c-2.7,0.8-5.3,1.6-8.4,2.2c-2.9,0.6-6.3,1-10,1c-4.9,0-9.4-0.6-13.3-1.8
			s-7.1-3.1-10-5.7c-2.7-2.4-4.9-5.5-6.3-9.2C451.5,139,450.7,134.7,450.7,129.8L450.7,129.8z M489.5,123.9c0-1.6-0.2-3.1-0.6-4.5
			s-1-2.7-2-3.9c-0.8-1.2-2-2-3.5-2.9c-1.4-0.6-3.1-1-5.1-1s-3.7,0.4-5.1,1s-2.7,1.6-3.5,2.7c-1,1.2-1.6,2.4-2.2,3.9
			c-0.6,1.4-0.8,3.1-1,4.5h23.1L489.5,123.9z"/>
		<path class="st2" d="M533.4,146.8c3.7,0,6.5-0.2,8.6-0.8c2-0.6,2.9-1.6,2.9-3.3c0-1-0.4-2-1-2.7c-0.6-0.8-1.4-1.4-2.7-1.8
			c-1-0.6-2.4-1-3.9-1.6c-1.4-0.4-2.9-1-4.5-1.4c-2.2-0.6-4.5-1.4-6.7-2.2s-4.3-2-6.3-3.3c-1.8-1.2-3.5-3.1-4.7-4.9
			c-1.2-2-1.8-4.5-1.8-7.6c0-2.4,0.4-4.7,1.4-6.9s2.5-4.1,4.5-5.7s4.5-3.1,7.8-3.9c3.1-1,6.9-1.4,11.2-1.4c3.7,0,7.3,0.2,10.4,0.8
			c3.3,0.6,6.1,1.4,8.4,2.4l-2.2,12.9c-1.4-0.4-3.5-1-6.5-2c-2.9-1-6.3-1.4-10-1.4c-3.9,0-6.5,0.4-7.8,1.4c-1.4,1-2,2-2,3.1
			c0,0.8,0.4,1.6,1,2.4c0.6,0.6,1.4,1.4,2.4,1.8c1,0.6,2.2,1.2,3.5,1.6c1.4,0.6,2.9,1,4.3,1.6c2.2,0.8,4.5,1.6,6.9,2.4
			c2.5,0.8,4.5,2,6.5,3.5c1.8,1.4,3.5,3.1,4.7,5.1s1.8,4.7,1.8,7.8c0,2.4-0.4,4.7-1.4,6.7c-0.8,2-2.4,3.9-4.5,5.5
			c-2,1.6-4.9,2.9-8.2,3.7s-7.6,1.4-12.5,1.4s-9.2-0.6-12.9-1.6c-3.5-1.2-6.3-2.2-8.6-3.1l2.2-12.7c2.9,1.2,5.9,2.2,9.2,3.3
			C526.8,146.4,530.1,146.8,533.4,146.8L533.4,146.8z"/>
		<path class="st2" d="M589.9,146.8c3.7,0,6.5-0.2,8.6-0.8c2-0.6,2.9-1.6,2.9-3.3c0-1-0.4-2-1-2.7c-0.6-0.8-1.4-1.4-2.7-1.8
			c-1-0.6-2.4-1-3.9-1.6c-1.4-0.4-2.9-1-4.5-1.4c-2.2-0.6-4.5-1.4-6.7-2.2s-4.3-2-6.3-3.3c-1.8-1.2-3.5-3.1-4.7-4.9
			c-1.2-2-1.8-4.5-1.8-7.6c0-2.4,0.4-4.7,1.4-6.9s2.5-4.1,4.5-5.7s4.5-3.1,7.8-3.9c3.1-1,6.9-1.4,11.2-1.4c3.7,0,7.3,0.2,10.4,0.8
			c3.3,0.6,6.1,1.4,8.4,2.4l-2.2,12.9c-1.4-0.4-3.5-1-6.5-2c-2.9-1-6.3-1.4-10-1.4c-3.9,0-6.5,0.4-7.8,1.4c-1.4,1-2,2-2,3.1
			c0,0.8,0.4,1.6,1,2.4c0.6,0.6,1.4,1.4,2.4,1.8c1,0.6,2.2,1.2,3.5,1.6c1.4,0.6,2.9,1,4.3,1.6c2.2,0.8,4.5,1.6,6.9,2.4
			c2.5,0.8,4.5,2,6.5,3.5c1.8,1.4,3.5,3.1,4.7,5.1s1.8,4.7,1.8,7.8c0,2.4-0.4,4.7-1.4,6.7c-0.8,2-2.4,3.9-4.5,5.5
			c-2,1.6-4.9,2.9-8.2,3.7s-7.6,1.4-12.5,1.4s-9.2-0.6-12.9-1.6c-3.5-1.2-6.3-2.2-8.6-3.1l2.2-12.7c2.9,1.2,5.9,2.2,9.2,3.3
			C583.2,146.4,586.4,146.8,589.9,146.8L589.9,146.8z"/>
		<path class="st2" d="M636.7,173.3H621l34.5-106.1H671L636.7,173.3z"/>
		<path class="st2" d="M748.9,99.8h-12.2v42.3h12.2c13.3,0,21.2-9.6,21.2-21C770,109,762.8,99.8,748.9,99.8z"/>
		<path class="st2" d="M808.5,130.5h22.2l-11-30.8L808.5,130.5z"/>
		<path class="st2" d="M694.8,65.7l-31.2,108.4h326.6l31.2-108.4L694.8,65.7z M748.9,154.5h-26.5V87.2h26.5
			c21.2,0,35.7,13.5,35.7,33.9C784.6,141.3,770,154.5,748.9,154.5z M838.9,154.5l-4.3-11.6h-30.2l-4.3,11.6h-15.7L810.6,87h18
			l25.9,67.6h-15.6V154.5z M886.1,154.5h-14.3V127l-25.9-39.8h16.3l16.7,27.1l16.5-27.1h16.3L886.1,127V154.5z M939.2,155.8
			c-12.9,0-22.2-4.3-28.6-10.8l8-11c4.7,4.9,12,9.2,21.4,9.2c8,0,11.8-3.7,11.8-7.6c0-5.1-5.9-6.7-13.7-8.6
			c-11-2.4-25.1-5.5-25.1-20.6c0-11.2,9.8-20.4,25.5-20.4c10.8,0,19.6,3.3,26.3,9.4l-8,10.6c-5.5-5.1-12.7-7.3-19.4-7.3
			c-6.5,0-10,2.9-10,6.9c0,4.5,5.7,5.9,13.5,7.8c11.2,2.4,25.3,5.9,25.3,20.8C966.3,146.6,957.5,155.8,939.2,155.8L939.2,155.8z"/>
	</g>
	<path class="st0" d="M599.9,177.8h-25.3c-2,0-3.7-1.6-3.7-3.7c0-2,1.6-3.7,3.7-3.7h25.3c2,0,3.7,1.6,3.7,3.7
		C603.6,176.2,602,177.8,599.9,177.8z M553,177.8h-25.3c-2,0-3.7-1.6-3.7-3.7c0-2,1.6-3.7,3.7-3.7H553c2,0,3.7,1.6,3.7,3.7
		C556.6,176.2,555,177.8,553,177.8z M506,177.8h-25.3c-2,0-3.7-1.6-3.7-3.7c0-2,1.6-3.7,3.7-3.7H506c2,0,3.7,1.6,3.7,3.7
		S507.9,177.8,506,177.8z M459.1,177.8h-25.3c-2,0-3.7-1.6-3.7-3.7c0-2,1.6-3.7,3.7-3.7h25.3c2,0,3.7,1.6,3.7,3.7
		C462.7,176.2,460.9,177.8,459.1,177.8z M411.9,177.8h-25.3c-2,0-3.7-1.6-3.7-3.7c0-2,1.6-3.7,3.7-3.7h25.3c2,0,3.7,1.6,3.7,3.7
		S414,177.8,411.9,177.8z M365,177.8h-25.3c-2,0-3.7-1.6-3.7-3.7c0-2,1.6-3.7,3.7-3.7H365c2,0,3.7,1.6,3.7,3.7
		C368.6,176.2,367,177.8,365,177.8z M318,177.8h-25.3c-2,0-3.7-1.6-3.7-3.7c0-2,1.6-3.7,3.7-3.7H318c2,0,3.7,1.6,3.7,3.7
		S320.1,177.8,318,177.8z M271.1,177.8h-25.3c-2,0-3.7-1.6-3.7-3.7c0-2,1.6-3.7,3.7-3.7h25.3c2,0,3.7,1.6,3.7,3.7
		C274.7,176.2,273.1,177.8,271.1,177.8z M224.1,177.8h-25.3c-2,0-3.7-1.6-3.7-3.7c0-2,1.6-3.7,3.7-3.7h25.3c2,0,3.7,1.6,3.7,3.7
		S226,177.8,224.1,177.8z M177,177.8h-25.1c-2,0-3.7-1.6-3.7-3.7c0-2,1.6-3.7,3.7-3.7h25.3c2,0,3.7,1.6,3.7,3.7S179,177.8,177,177.8
		L177,177.8z M130,177.8h-25.3c-2,0-3.7-1.6-3.7-3.7c0-2,1.6-3.7,3.7-3.7H130c2,0,3.7,1.6,3.7,3.7S132.1,177.8,130,177.8z
		 M83.1,177.8H57.8c-2,0-3.7-1.6-3.7-3.7c0-2,1.6-3.7,3.7-3.7h25.3c2,0,3.7,1.6,3.7,3.7C86.8,176.2,85.1,177.8,83.1,177.8z"/>
	<g>
		<path class="st2" d="M754.7,200.5l5.1-0.5c0.3,1.7,0.9,2.9,1.9,3.7s2.2,1.2,3.8,1.2c1.7,0,2.9-0.4,3.8-1.1s1.3-1.5,1.3-2.5
			c0-0.6-0.2-1.1-0.5-1.6s-1-0.8-1.9-1.1c-0.6-0.2-2-0.6-4.2-1.1c-2.8-0.7-4.7-1.5-5.9-2.5c-1.6-1.4-2.4-3.1-2.4-5.2
			c0-1.3,0.4-2.5,1.1-3.7s1.8-2,3.2-2.6s3.1-0.9,5.1-0.9c3.2,0,5.7,0.7,7.3,2.1s2.5,3.3,2.6,5.7l-5.2,0.2c-0.2-1.3-0.7-2.3-1.4-2.9
			s-1.8-0.9-3.3-0.9s-2.7,0.3-3.6,0.9c-0.6,0.4-0.8,0.9-0.8,1.6c0,0.6,0.3,1.1,0.8,1.6c0.7,0.6,2.2,1.1,4.8,1.7s4.4,1.2,5.6,1.9
			s2.2,1.5,2.8,2.6s1,2.5,1,4.1c0,1.5-0.4,2.9-1.2,4.1s-2,2.2-3.5,2.9s-3.4,0.9-5.6,0.9c-3.3,0-5.8-0.8-7.5-2.3
			S755.1,203.4,754.7,200.5z"/>
		<path class="st2" d="M790.8,202.9l4.9,0.8c-0.6,1.8-1.6,3.2-3,4.1s-3.1,1.4-5.1,1.4c-3.2,0-5.6-1.1-7.2-3.2
			c-1.2-1.7-1.8-3.8-1.8-6.4c0-3.1,0.8-5.5,2.4-7.3s3.7-2.6,6.1-2.6c2.8,0,5,0.9,6.6,2.8s2.4,4.6,2.3,8.4h-12.4
			c0,1.5,0.4,2.6,1.2,3.4s1.7,1.2,2.8,1.2c0.8,0,1.4-0.2,2-0.6S790.6,203.8,790.8,202.9z M791.1,197.9c0-1.4-0.4-2.5-1.1-3.3
			s-1.6-1.1-2.6-1.1c-1.1,0-2,0.4-2.7,1.2s-1,1.9-1,3.2L791.1,197.9L791.1,197.9z"/>
		<path class="st2" d="M799.9,190.2h4.6v2.7c0.6-0.9,1.4-1.7,2.4-2.3s2.2-0.9,3.4-0.9c2.2,0,4,0.8,5.5,2.5s2.3,4.1,2.3,7.1
			c0,3.1-0.8,5.5-2.3,7.3s-3.4,2.6-5.5,2.6c-1,0-2-0.2-2.8-0.6s-1.7-1.1-2.6-2.1v9.4H800v-25.7H799.9z M804.8,199.2
			c0,2.1,0.4,3.6,1.2,4.6s1.8,1.5,3,1.5c1.1,0,2.1-0.5,2.9-1.4s1.1-2.4,1.1-4.5c0-2-0.4-3.4-1.2-4.4s-1.8-1.4-2.9-1.4
			c-1.2,0-2.2,0.5-3,1.4S804.8,197.4,804.8,199.2z"/>
		<path class="st2" d="M830.6,190.2v3.9h-3.4v7.5c0,1.5,0,2.4,0.1,2.7s0.2,0.5,0.4,0.6s0.5,0.2,0.8,0.2c0.5,0,1.1-0.2,2-0.5l0.4,3.8
			c-1.1,0.5-2.4,0.7-3.9,0.7c-0.9,0-1.7-0.1-2.4-0.4s-1.2-0.7-1.6-1.2s-0.6-1.1-0.7-1.9c-0.1-0.6-0.2-1.7-0.2-3.5V194H820v-3.9h2.3
			v-3.7l5-2.9v6.6L830.6,190.2L830.6,190.2z"/>
		<path class="st2" d="M844.8,202.9l4.9,0.8c-0.6,1.8-1.6,3.2-3,4.1s-3.1,1.4-5.1,1.4c-3.2,0-5.6-1.1-7.2-3.2
			c-1.2-1.7-1.8-3.8-1.8-6.4c0-3.1,0.8-5.5,2.4-7.3s3.7-2.6,6.1-2.6c2.8,0,5,0.9,6.6,2.8s2.4,4.6,2.3,8.4h-12.4
			c0,1.5,0.4,2.6,1.2,3.4s1.7,1.2,2.8,1.2c0.8,0,1.4-0.2,2-0.6S844.6,203.8,844.8,202.9z M845.1,197.9c0-1.4-0.4-2.5-1.1-3.3
			s-1.6-1.1-2.6-1.1c-1.1,0-2,0.4-2.7,1.2s-1,1.9-1,3.2L845.1,197.9L845.1,197.9z"/>
		<path class="st2" d="M853.7,190.2h4.6v2.5c1.6-2,3.6-3,5.8-3c1.2,0,2.2,0.2,3.1,0.7s1.6,1.2,2.2,2.2c0.8-1,1.7-1.7,2.7-2.2
			s2-0.7,3-0.7c1.4,0,2.5,0.3,3.5,0.8s1.7,1.4,2.1,2.5c0.3,0.8,0.5,2.1,0.5,3.9v11.9h-4.9v-10.7c0-1.9-0.2-3-0.5-3.6
			c-0.5-0.7-1.2-1.1-2.1-1.1c-0.7,0-1.3,0.2-2,0.6s-1,1-1.3,1.9s-0.4,2.1-0.4,3.9v9h-5v-10.2c0-1.8-0.1-3-0.3-3.5s-0.4-0.9-0.8-1.2
			s-0.9-0.4-1.5-0.4c-0.8,0-1.4,0.2-2.1,0.6s-1,1-1.3,1.8s-0.4,2.1-0.4,3.8v9.1h-4.9V190.2z"/>
		<path class="st2" d="M885.8,208.9v-25.8h4.9v9.3c1.5-1.7,3.3-2.6,5.4-2.6c2.3,0,4.2,0.8,5.6,2.5s2.2,4,2.2,7.1
			c0,3.2-0.8,5.6-2.3,7.4s-3.4,2.6-5.5,2.6c-1.1,0-2.1-0.3-3.2-0.8s-1.9-1.3-2.7-2.4v2.7H885.8z M890.7,199.1c0,1.9,0.3,3.4,0.9,4.3
			c0.9,1.3,2,2,3.4,2c1.1,0,2-0.5,2.8-1.4s1.2-2.4,1.2-4.4c0-2.1-0.4-3.7-1.2-4.6s-1.8-1.4-3-1.4s-2.2,0.5-3,1.4
			S890.7,197.2,890.7,199.1z"/>
		<path class="st2" d="M918.8,202.9l4.9,0.8c-0.6,1.8-1.6,3.2-3,4.1s-3.1,1.4-5.1,1.4c-3.2,0-5.6-1.1-7.2-3.2
			c-1.2-1.7-1.8-3.8-1.8-6.4c0-3.1,0.8-5.5,2.4-7.3s3.7-2.6,6.1-2.6c2.8,0,5,0.9,6.6,2.8s2.4,4.6,2.3,8.4h-12.4
			c0,1.5,0.4,2.6,1.2,3.4s1.7,1.2,2.8,1.2c0.8,0,1.4-0.2,2-0.6S918.6,203.8,918.8,202.9z M919.1,197.9c0-1.4-0.4-2.5-1.1-3.3
			s-1.6-1.1-2.6-1.1c-1.1,0-2,0.4-2.7,1.2s-1,1.9-1,3.2L919.1,197.9L919.1,197.9z"/>
		<path class="st2" d="M932.8,208.9h-4.9v-18.7h4.6v2.7c0.8-1.3,1.5-2.1,2.1-2.5s1.3-0.6,2.1-0.6c1.1,0,2.2,0.3,3.3,0.9l-1.5,4.3
			c-0.8-0.5-1.6-0.8-2.3-0.8s-1.3,0.2-1.8,0.6s-0.9,1.1-1.1,2.1s-0.4,3.1-0.4,6.3L932.8,208.9L932.8,208.9z"/>
		<path class="st2" d="M967.7,204.3v4.6h-17.3c0.2-1.7,0.8-3.4,1.7-4.9s2.8-3.6,5.6-6.2c2.2-2.1,3.6-3.5,4.1-4.2c0.7-1,1-2,1-3
			c0-1.1-0.3-1.9-0.9-2.5s-1.4-0.9-2.5-0.9c-1,0-1.9,0.3-2.5,0.9s-1,1.7-1.1,3.1l-4.9-0.5c0.3-2.7,1.2-4.7,2.8-5.9s3.5-1.8,5.8-1.8
			c2.5,0,4.5,0.7,6,2.1s2.2,3.1,2.2,5.1c0,1.2-0.2,2.3-0.6,3.3s-1.1,2.1-2,3.3c-0.6,0.8-1.7,1.9-3.2,3.3s-2.5,2.4-3,2.8
			s-0.8,0.9-1,1.4L967.7,204.3L967.7,204.3z"/>
		<path class="st2" d="M970.9,202l4.8-0.6c0.2,1.2,0.6,2.2,1.2,2.8s1.5,1,2.4,1c1,0,1.9-0.4,2.6-1.2s1-1.8,1-3.1c0-1.2-0.3-2.2-1-3
			s-1.5-1.1-2.4-1.1c-0.6,0-1.4,0.1-2.3,0.4l0.5-4c1.3,0,2.4-0.3,3.1-0.9s1.1-1.4,1.1-2.5c0-0.9-0.3-1.6-0.8-2.1s-1.2-0.8-2.1-0.8
			c-0.8,0-1.6,0.3-2.2,0.9s-1,1.4-1.1,2.6l-4.6-0.8c0.3-1.6,0.8-2.8,1.4-3.7s1.5-1.7,2.7-2.2s2.4-0.8,3.8-0.8c2.4,0,4.4,0.8,5.8,2.3
			c1.2,1.3,1.8,2.7,1.8,4.3c0,2.3-1.2,4.1-3.7,5.4c1.5,0.3,2.7,1,3.5,2.1s1.3,2.4,1.3,4c0,2.3-0.8,4.2-2.5,5.8s-3.7,2.4-6.2,2.4
			c-2.3,0-4.3-0.7-5.8-2S971.1,204.2,970.9,202z"/>
	</g>
</g>
<g id="Layer_2_00000142892310520409034560000011593466187547366538_">
	<g>
		<path class="st2" d="M901.7,15.6l-8.6-1.3c0.7-4.2,2.3-7.4,4.9-9.6c2.6-2.2,5.7-3.3,9.6-3.3c4.2,0,7.5,1.1,9.9,3.4
			s3.6,5.2,3.6,8.7c0,1.8-0.4,3.6-1.1,5.4c-0.7,1.8-1.9,3.7-3.6,5.6c-1.2,1.4-3.2,3.4-5.9,5.9c-2.7,2.6-4.6,4.3-5.5,5.2
			c-0.9,0.9-1.7,1.9-2.6,3H918l-1.7,8.1h-27.4c0.3-2.2,0.9-4.3,2-6.3c1-2,2.3-3.9,3.8-5.6s4.3-4.5,8.3-8.3c3-2.9,5-4.8,5.8-5.7
			c1.4-1.6,2.4-3,3-4.2c0.5-1.2,0.8-2.2,0.8-3.2c0-1.5-0.4-2.7-1.3-3.7c-0.9-0.9-2-1.4-3.4-1.4s-2.6,0.5-3.7,1.6
			S902.2,12.8,901.7,15.6z"/>
		<path class="st2" d="M924.2,32c0-4.5,0.8-9.1,2.3-13.8c1.9-5.7,4.3-9.9,7.3-12.7s6.2-4.2,9.8-4.2c3.7,0,6.6,1.3,9,4
			s3.5,6.5,3.5,11.5c0,4.6-0.9,9.5-2.6,14.6c-1.7,5.1-4,9.1-6.9,11.8s-6.2,4.1-9.8,4.1c-3.7,0-6.7-1.3-9-4
			C925.4,40.8,924.2,37,924.2,32z M932.8,33.8c0,2.4,0.4,4.1,1.2,5.1s1.8,1.5,3,1.5c1.6,0,3.1-0.8,4.4-2.3c1.7-2,3.2-6,4.5-12
			c1-4.7,1.6-8.5,1.6-11.3c0-2.3-0.4-3.9-1.2-4.9s-1.8-1.5-3-1.5c-1.6,0-2.9,0.7-4.2,2.2c-1.8,2.2-3.3,6-4.6,11.5
			C933.4,26.9,932.8,30.8,932.8,33.8z"/>
		<path class="st2" d="M971.8,15.6l-8.6-1.3c0.7-4.2,2.3-7.4,4.9-9.6c2.6-2.2,5.7-3.3,9.6-3.3c4.2,0,7.5,1.1,9.9,3.4
			s3.6,5.2,3.6,8.7c0,1.8-0.4,3.6-1.1,5.4c-0.7,1.8-1.9,3.7-3.6,5.6c-1.2,1.4-3.2,3.4-5.9,5.9c-2.7,2.6-4.6,4.3-5.5,5.2
			c-0.9,0.9-1.7,1.9-2.6,3H988l-1.7,8.1H959c0.3-2.2,0.9-4.3,2-6.3c1-2,2.3-3.9,3.8-5.6s4.3-4.5,8.3-8.3c3-2.9,5-4.8,5.8-5.7
			c1.4-1.6,2.4-3,3-4.2c0.5-1.2,0.8-2.2,0.8-3.2c0-1.5-0.4-2.7-1.3-3.7c-0.9-0.9-2-1.4-3.4-1.4s-2.6,0.5-3.7,1.6
			S972.3,12.8,971.8,15.6z"/>
		<path class="st2" d="M993.4,34.9l8.5-1c0.3,2.4,1,4.1,1.9,5s2.1,1.4,3.6,1.4c2,0,3.7-0.7,5-2c1.3-1.4,2-3.1,2-5.2
			c0-1.8-0.5-3.3-1.6-4.4s-2.5-1.6-4.3-1.6c-0.5,0-0.9,0-1.4,0.1l1.5-7.4c0.3,0,0.6,0.1,0.9,0.1c2.4,0,4.2-0.6,5.4-1.8
			c1.2-1.2,1.8-2.8,1.8-4.9c0-1.5-0.4-2.6-1.2-3.4c-0.8-0.8-1.9-1.3-3.3-1.3c-1.3,0-2.4,0.5-3.4,1.4s-1.8,2.5-2.4,4.8l-8.1-1.6
			c1-3.3,2.5-5.9,4.3-7.7c2.8-2.7,6.2-4,10.2-4c4.1,0,7.3,1.2,9.4,3.5c2.2,2.3,3.2,5.1,3.2,8.3c0,2.3-0.7,4.5-2.1,6.3
			c-1.4,1.9-3.3,3.3-5.7,4.2c1.9,1,3.3,2.3,4.2,3.9s1.4,3.3,1.4,5c0,3.3-1.2,6.4-3.5,9.2c-3.2,3.8-7.4,5.7-12.5,5.7
			c-3.8,0-7-1.1-9.4-3.3C995.4,42,993.9,38.9,993.4,34.9z"/>
	</g>
</g>
</svg>
